<svg xmlns="http://www.w3.org/2000/svg" viewBox="0 0 1549.79 863.41" style="&#10;    background: #111322;&#10;"><defs><style>.cls-1{fill:#fff;opacity:0.05;}</style></defs><title>Asset 2</title><g id="Layer_2" data-name="Layer 2"><g id="Layer_1-2" data-name="Layer 1"><path class="cls-1" d="M646.22,324.8a7.2,7.2,0,1,1-7.2-7.2A7.2,7.2,0,0,1,646.22,324.8ZM827.61,544.21a7.2,7.2,0,1,0,7.2,7.2A7.21,7.21,0,0,0,827.61,544.21Zm.62-18.87a7.2,7.2,0,1,0,7.2,7.2A7.2,7.2,0,0,0,828.23,525.34Zm-20.35-44.28a7.2,7.2,0,1,0,7.2,7.2A7.2,7.2,0,0,0,807.88,481.06Zm-140.1-154a7.2,7.2,0,1,0,7.2,7.2A7.2,7.2,0,0,0,667.78,327.09ZM780.45,539a7.2,7.2,0,1,0,7.2,7.2A7.2,7.2,0,0,0,780.45,539Zm-.71,132.45a7.2,7.2,0,1,0,7.2,7.2A7.2,7.2,0,0,0,779.74,671.43ZM598.06,369.09a7.2,7.2,0,1,0,7.2,7.2A7.2,7.2,0,0,0,598.06,369.09ZM753.82,576.94a7.2,7.2,0,1,0,7.2,7.2A7.21,7.21,0,0,0,753.82,576.94ZM938.47,471.18a7.2,7.2,0,1,0,7.2,7.2A7.2,7.2,0,0,0,938.47,471.18ZM847.28,310.54a7.2,7.2,0,1,0,7.2,7.2A7.2,7.2,0,0,0,847.28,310.54ZM753.67,559.82a7.2,7.2,0,1,0,7.2,7.2A7.2,7.2,0,0,0,753.67,559.82Zm57.61-43.29a7.2,7.2,0,1,0,7.2,7.19A7.19,7.19,0,0,0,811.28,516.53Zm46.29,30.74a7.2,7.2,0,1,0,7.2,7.2A7.2,7.2,0,0,0,857.57,547.27ZM783.42,691.68a7.2,7.2,0,1,0,7.2,7.2A7.2,7.2,0,0,0,783.42,691.68Zm-37-191.12a7.2,7.2,0,1,0,7.2,7.2A7.2,7.2,0,0,0,746.44,500.56Zm-118.9-142.2a7.2,7.2,0,1,0,7.2,7.2A7.2,7.2,0,0,0,627.54,358.36Zm49.8,82.4a7.2,7.2,0,1,0,7.2,7.2A7.2,7.2,0,0,0,677.34,440.76ZM780.8,426.4a7.2,7.2,0,1,0,7.2,7.2A7.21,7.21,0,0,0,780.8,426.4Zm103.65,27.94a7.2,7.2,0,1,0,7.2,7.2A7.2,7.2,0,0,0,884.45,454.34Zm-119,233.22a7.2,7.2,0,1,0,7.2,7.2A7.2,7.2,0,0,0,765.48,687.56Zm-104.66-294a7.2,7.2,0,1,0,7.2,7.2A7.21,7.21,0,0,0,660.82,393.53ZM759.47,671.6a7.2,7.2,0,1,0,7.2,7.2A7.2,7.2,0,0,0,759.47,671.6Zm187.81-62.18a7.2,7.2,0,1,0,7.2,7.2A7.21,7.21,0,0,0,947.28,609.42ZM773.42,706.57a7.2,7.2,0,1,0,7.2,7.2A7.2,7.2,0,0,0,773.42,706.57ZM598.79,419.69a7.2,7.2,0,1,0,7.2,7.2A7.2,7.2,0,0,0,598.79,419.69ZM828.26,705.75a7.2,7.2,0,1,0,7.2,7.2A7.2,7.2,0,0,0,828.26,705.75ZM729.41,513.21a7.2,7.2,0,1,0,7.2,7.2A7.2,7.2,0,0,0,729.41,513.21ZM846.7,433.45a7.2,7.2,0,1,0,7.2,7.2A7.2,7.2,0,0,0,846.7,433.45ZM579,400a7.2,7.2,0,1,0,7.2,7.2A7.2,7.2,0,0,0,579,400Zm303.33,70.84a7.2,7.2,0,1,0,7.2,7.2A7.2,7.2,0,0,0,882.37,470.88ZM742.7,301.22a7.2,7.2,0,1,0,7.2,7.2A7.2,7.2,0,0,0,742.7,301.22Zm-64.65-25.41a7.2,7.2,0,1,0,7.2,7.2A7.21,7.21,0,0,0,678.05,275.81Zm148.89,36.58a7.2,7.2,0,1,0,7.2,7.2A7.2,7.2,0,0,0,826.94,312.39Zm-129,79.83a7.2,7.2,0,1,0,7.2,7.2A7.2,7.2,0,0,0,697.92,392.22Zm160.26-37.9a7.2,7.2,0,1,0,7.2,7.2A7.2,7.2,0,0,0,858.18,354.32Zm86.63,102.42a7.2,7.2,0,1,0,7.2,7.2A7.2,7.2,0,0,0,944.81,456.74ZM633.27,412.37a7.2,7.2,0,1,0,7.2,7.2A7.2,7.2,0,0,0,633.27,412.37Zm19.51-34.59A7.2,7.2,0,1,0,660,385,7.2,7.2,0,0,0,652.78,377.78ZM797.26,542.17a7.2,7.2,0,1,0,7.2,7.2A7.2,7.2,0,0,0,797.26,542.17ZM839,691.46a7.2,7.2,0,1,0,7.2,7.2A7.2,7.2,0,0,0,839,691.46Zm-44.35-47.87a7.2,7.2,0,1,0,7.2,7.2A7.2,7.2,0,0,0,794.61,643.59ZM752.4,644a7.2,7.2,0,1,0,7.2,7.2A7.2,7.2,0,0,0,752.4,644Zm9.26-152.13a7.2,7.2,0,1,0,7.2,7.2A7.2,7.2,0,0,0,761.66,491.84Zm127,98.48a7.2,7.2,0,1,0,7.2,7.2A7.2,7.2,0,0,0,888.68,590.32ZM709.81,429.21a7.2,7.2,0,1,0,7.2,7.2A7.2,7.2,0,0,0,709.81,429.21Zm151.64,181a7.2,7.2,0,1,0,7.2,7.2A7.2,7.2,0,0,0,861.45,610.16ZM791,356a7.2,7.2,0,1,0,7.2,7.2A7.2,7.2,0,0,0,791,356Zm3.26,152.92a7.2,7.2,0,1,0,7.2,7.2A7.2,7.2,0,0,0,794.22,508.9ZM689.88,375.67a7.2,7.2,0,1,0,7.2,7.2A7.2,7.2,0,0,0,689.88,375.67ZM876.79,542.13a7.2,7.2,0,1,0,7.2,7.2A7.21,7.21,0,0,0,876.79,542.13ZM887,575.06a7.2,7.2,0,1,0,7.2,7.2A7.2,7.2,0,0,0,887,575.06ZM780.28,650.78a7.2,7.2,0,1,0,7.2,7.2A7.21,7.21,0,0,0,780.28,650.78Zm30.93,24.94a7.2,7.2,0,1,0,7.2,7.2A7.2,7.2,0,0,0,811.21,675.72Zm.26-30a7.2,7.2,0,1,0,7.2,7.2A7.2,7.2,0,0,0,811.47,645.68ZM748.3,318.41a7.2,7.2,0,1,0,7.2,7.2A7.21,7.21,0,0,0,748.3,318.41ZM578.53,419a7.2,7.2,0,1,0,7.2,7.2A7.2,7.2,0,0,0,578.53,419Zm48.34-26.84a7.2,7.2,0,1,0,7.2,7.2A7.2,7.2,0,0,0,626.87,392.2Zm298.62,69.61a7.2,7.2,0,1,0,7.2,7.2A7.2,7.2,0,0,0,925.49,461.81ZM741.26,424.42a7.2,7.2,0,1,0,7.2,7.2A7.2,7.2,0,0,0,741.26,424.42Zm172.41,66.06a7.2,7.2,0,1,0,7.2,7.2A7.2,7.2,0,0,0,913.67,490.48ZM705.19,410.64a7.2,7.2,0,1,0,7.2,7.2A7.2,7.2,0,0,0,705.19,410.64Zm42.17,105.82a7.2,7.2,0,1,0,7.2,7.2A7.2,7.2,0,0,0,747.36,516.46ZM731,494.54a7.2,7.2,0,1,0,7.2,7.2A7.2,7.2,0,0,0,731,494.54ZM876.1,601.66a7.2,7.2,0,1,0,7.2,7.2A7.2,7.2,0,0,0,876.1,601.66Zm-15.64-90a7.2,7.2,0,1,0,7.2,7.2A7.2,7.2,0,0,0,860.46,511.62ZM819,421.81a7.2,7.2,0,1,0,7.2,7.2A7.2,7.2,0,0,0,819,421.81Zm-38.23-82.53a7.2,7.2,0,1,0,7.2,7.2A7.2,7.2,0,0,0,780.81,339.28Zm-96-15.44A7.2,7.2,0,1,0,692,331,7.2,7.2,0,0,0,684.78,323.84ZM642.69,284.9a7.2,7.2,0,1,0,7.2,7.2A7.2,7.2,0,0,0,642.69,284.9ZM840.58,632.22a7.2,7.2,0,1,0,7.2,7.2A7.2,7.2,0,0,0,840.58,632.22Zm-21.45-52a7.2,7.2,0,1,0,7.2,7.2A7.2,7.2,0,0,0,819.13,580.19ZM628.35,432.88a7.2,7.2,0,1,0,7.2,7.2A7.2,7.2,0,0,0,628.35,432.88Zm23.53-21.05a7.2,7.2,0,1,0,7.2,7.2A7.2,7.2,0,0,0,651.88,411.83Zm280,234a7.2,7.2,0,1,0,7.2,7.2A7.2,7.2,0,0,0,931.91,645.86ZM827.28,507.35a7.2,7.2,0,1,0,7.2,7.2A7.2,7.2,0,0,0,827.28,507.35Zm-34.94-35.23a7.2,7.2,0,1,0,7.2,7.2A7.2,7.2,0,0,0,792.34,472.12Zm-70.51-178a7.2,7.2,0,1,0,7.2,7.2A7.2,7.2,0,0,0,721.83,294.12Zm-26.18-19.38a7.2,7.2,0,1,0,7.2,7.2A7.21,7.21,0,0,0,695.65,274.74ZM877.9,487.15a7.2,7.2,0,1,0,7.2,7.2A7.2,7.2,0,0,0,877.9,487.15ZM622.17,310.22a7.2,7.2,0,1,0,7.2,7.2A7.2,7.2,0,0,0,622.17,310.22Zm290.75,161a7.2,7.2,0,1,0,7.2,7.2A7.2,7.2,0,0,0,912.92,471.25Zm-15.39,7.51a7.2,7.2,0,1,0,7.2,7.2A7.2,7.2,0,0,0,897.53,478.76Zm-173-21.84a7.2,7.2,0,1,0,7.2,7.2A7.2,7.2,0,0,0,724.56,456.92Zm29.11-18.3a7.2,7.2,0,1,0,7.2,7.2A7.2,7.2,0,0,0,753.67,438.62ZM827,488.19a7.2,7.2,0,1,0,7.2,7.2A7.2,7.2,0,0,0,827,488.19Zm18.58-5.13a7.2,7.2,0,1,0,7.2,7.2A7.2,7.2,0,0,0,845.56,483.06ZM580.73,361.21a7.2,7.2,0,1,0,7.2,7.2A7.2,7.2,0,0,0,580.73,361.21ZM639.51,345a7.2,7.2,0,1,0,7.2,7.2A7.2,7.2,0,0,0,639.51,345Zm-43.65,59.26a7.2,7.2,0,1,0,7.2,7.2A7.2,7.2,0,0,0,595.86,404.21ZM823.65,358a7.2,7.2,0,1,0,7.2,7.2A7.21,7.21,0,0,0,823.65,358Zm51.73,164.12a7.2,7.2,0,1,0,7.2,7.2A7.2,7.2,0,0,0,875.38,522.15ZM642.47,302.29a7.2,7.2,0,1,0,7.2,7.2A7.2,7.2,0,0,0,642.47,302.29ZM906.28,504.75a7.2,7.2,0,1,0,7.2,7.2A7.2,7.2,0,0,0,906.28,504.75Zm-6.44-45.12a7.2,7.2,0,1,0,7.2,7.2A7.21,7.21,0,0,0,899.84,459.63ZM845,674.84a7.2,7.2,0,1,0,7.2,7.2A7.2,7.2,0,0,0,845,674.84ZM674.64,307.77a7.2,7.2,0,1,0,7.2,7.2A7.2,7.2,0,0,0,674.64,307.77ZM775.13,557.29a7.2,7.2,0,1,0,7.2,7.2A7.21,7.21,0,0,0,775.13,557.29ZM716,397.45a7.2,7.2,0,1,0,7.2,7.2A7.2,7.2,0,0,0,716,397.45Zm88.92,171.1a7.2,7.2,0,1,0,7.2,7.2A7.21,7.21,0,0,0,804.94,568.55Zm-76.11-258a7.2,7.2,0,1,0,7.2,7.2A7.2,7.2,0,0,0,728.83,310.53Zm-2.5,60.92a7.2,7.2,0,1,0,7.2,7.2A7.2,7.2,0,0,0,726.33,371.45ZM816.94,597.9a7.2,7.2,0,1,0,7.2,7.21A7.2,7.2,0,0,0,816.94,597.9Zm124.48,28.8a7.2,7.2,0,1,0,7.2,7.2A7.2,7.2,0,0,0,941.42,626.7Zm9.51-185a7.2,7.2,0,1,0,7.2,7.2A7.2,7.2,0,0,0,950.93,441.73ZM791.52,557.56a7.2,7.2,0,1,0,7.2,7.2A7.2,7.2,0,0,0,791.52,557.56Zm-27.81,99.3a7.2,7.2,0,1,0,7.2,7.2A7.2,7.2,0,0,0,763.71,656.86Zm89.11-11A7.2,7.2,0,1,0,860,653,7.2,7.2,0,0,0,852.82,645.82ZM607.77,354.65a7.2,7.2,0,1,0,7.2,7.2A7.2,7.2,0,0,0,607.77,354.65Zm-7.59-21a7.2,7.2,0,1,0,7.2,7.2A7.2,7.2,0,0,0,600.18,333.68ZM828.45,676.52a7.2,7.2,0,1,0,7.2,7.2A7.2,7.2,0,0,0,828.45,676.52Zm-15.92-61.38a7.2,7.2,0,1,0,7.2,7.2A7.2,7.2,0,0,0,812.53,615.14Zm26.12,44.42a7.2,7.2,0,1,0,7.2,7.2A7.2,7.2,0,0,0,838.65,659.56ZM635.3,463.8a7.2,7.2,0,1,0,7.2,7.2A7.2,7.2,0,0,0,635.3,463.8ZM797.6,395a7.2,7.2,0,1,0,7.2,7.2A7.21,7.21,0,0,0,797.6,395Zm18.33-67a7.2,7.2,0,1,0,7.2,7.2A7.2,7.2,0,0,0,815.93,328ZM580.64,378.34a7.2,7.2,0,1,0,7.2,7.2A7.21,7.21,0,0,0,580.64,378.34Zm180.55,241a7.2,7.2,0,1,0,7.2,7.2A7.2,7.2,0,0,0,761.19,619.3ZM831.8,405.38a7.2,7.2,0,1,0,7.2,7.2A7.2,7.2,0,0,0,831.8,405.38Zm17.83,7.15a7.2,7.2,0,1,0,7.2,7.2A7.21,7.21,0,0,0,849.63,412.53Zm-75.38,51.64a7.2,7.2,0,1,0,7.2,7.2A7.2,7.2,0,0,0,774.25,464.17ZM818,692a7.2,7.2,0,1,0,7.2,7.2A7.2,7.2,0,0,0,818,692Zm-21-355.78a7.2,7.2,0,1,0,7.2,7.2A7.2,7.2,0,0,0,796.94,336.26ZM822.59,454a7.2,7.2,0,1,0,7.2,7.2A7.21,7.21,0,0,0,822.59,454ZM789.43,709.94a7.2,7.2,0,1,0,7.2,7.2A7.21,7.21,0,0,0,789.43,709.94ZM669.27,408.81a7.2,7.2,0,1,0,7.2,7.2A7.2,7.2,0,0,0,669.27,408.81ZM745.14,627.5a7.2,7.2,0,1,0,7.2,7.2A7.2,7.2,0,0,0,745.14,627.5Zm98.2-127a7.2,7.2,0,1,0,7.2,7.2A7.21,7.21,0,0,0,843.34,500.48ZM781.06,628.9a7.2,7.2,0,1,0,7.2,7.2A7.2,7.2,0,0,0,781.06,628.9ZM758.29,455.18a7.2,7.2,0,1,0,7.2,7.2A7.2,7.2,0,0,0,758.29,455.18Zm48.31-90.56a7.2,7.2,0,1,0,7.2,7.2A7.2,7.2,0,0,0,806.6,364.62ZM616.81,420.94a7.2,7.2,0,1,0,7.2,7.2A7.2,7.2,0,0,0,616.81,420.94Zm276.59,74a7.2,7.2,0,1,0,7.2,7.2A7.21,7.21,0,0,0,893.4,494.9ZM830.55,645.7a7.2,7.2,0,1,0,7.2,7.2A7.2,7.2,0,0,0,830.55,645.7ZM687.63,407.53a7.2,7.2,0,1,0,7.2,7.2A7.2,7.2,0,0,0,687.63,407.53Zm117.19,50.59a7.2,7.2,0,1,0,7.2,7.2A7.2,7.2,0,0,0,804.82,458.12ZM677.91,423.43a7.2,7.2,0,1,0,7.2,7.2A7.2,7.2,0,0,0,677.91,423.43Zm23.48-98.06a7.2,7.2,0,1,0,7.2,7.2A7.21,7.21,0,0,0,701.39,325.37ZM590.13,434.69a7.2,7.2,0,1,0,7.2,7.2A7.2,7.2,0,0,0,590.13,434.69ZM764.36,545.08a7.2,7.2,0,1,0,7.2,7.2A7.2,7.2,0,0,0,764.36,545.08Zm30.82-19.28a7.2,7.2,0,1,0,7.2,7.2A7.2,7.2,0,0,0,795.18,525.8Zm-24.1-116.15a7.2,7.2,0,1,0,7.2,7.2A7.2,7.2,0,0,0,771.08,409.65Zm16.41,45a7.2,7.2,0,1,0,7.2,7.2A7.2,7.2,0,0,0,787.49,454.64ZM764.73,344.38a7.2,7.2,0,1,0,7.2,7.2A7.21,7.21,0,0,0,764.73,344.38Zm-4.83,30.73a7.2,7.2,0,1,0,7.2,7.2A7.2,7.2,0,0,0,759.9,375.11Zm2.35,50.07a7.2,7.2,0,1,0,7.2,7.2A7.2,7.2,0,0,0,762.25,425.18ZM612.9,324a7.2,7.2,0,1,0,7.2,7.2A7.2,7.2,0,0,0,612.9,324Zm97.62-15.17a7.2,7.2,0,1,0,7.2,7.2A7.2,7.2,0,0,0,710.52,308.87ZM860.5,530a7.2,7.2,0,1,0,7.2,7.2A7.2,7.2,0,0,0,860.5,530ZM679.14,392.25a7.2,7.2,0,1,0,7.2,7.2A7.2,7.2,0,0,0,679.14,392.25ZM608.39,436a7.2,7.2,0,1,0,7.2,7.2A7.2,7.2,0,0,0,608.39,436Zm55.91-73.77a7.2,7.2,0,1,0,7.2,7.2A7.2,7.2,0,0,0,664.3,362.25Zm187.62,32.47a7.2,7.2,0,1,0,7.2,7.2A7.2,7.2,0,0,0,851.92,394.72ZM601.36,452.05a7.2,7.2,0,1,0,7.2,7.2A7.2,7.2,0,0,0,601.36,452.05Zm217.3-58a7.2,7.2,0,1,0,7.2,7.2A7.2,7.2,0,0,0,818.66,394Zm3.17-18.08a7.2,7.2,0,1,0,7.2,7.2A7.2,7.2,0,0,0,821.83,375.94ZM646.47,360.63a7.2,7.2,0,1,0,7.2,7.2A7.2,7.2,0,0,0,646.47,360.63Zm68-87.23a7.2,7.2,0,1,0,7.2,7.2A7.21,7.21,0,0,0,714.47,273.4Zm95.21,134.65a7.2,7.2,0,1,0,7.2,7.2A7.2,7.2,0,0,0,809.68,408.05ZM656.87,314.38a7.2,7.2,0,1,0,7.2,7.2A7.2,7.2,0,0,0,656.87,314.38Zm153,32.29a7.2,7.2,0,1,0,7.2,7.2A7.2,7.2,0,0,0,809.87,346.67Zm34.55,171.49a7.2,7.2,0,1,0,7.2,7.2A7.2,7.2,0,0,0,844.42,518.16Zm-8-130.28a7.2,7.2,0,1,0,7.2,7.2A7.21,7.21,0,0,0,836.37,387.88Zm-7.09-46.65a7.2,7.2,0,1,0,7.2,7.2A7.2,7.2,0,0,0,829.28,341.23Zm-18.43,210.9a7.2,7.2,0,1,0,7.2,7.2A7.2,7.2,0,0,0,810.85,552.13Zm49.9,77.41a7.2,7.2,0,1,0,7.2,7.2A7.2,7.2,0,0,0,860.75,629.54ZM700.24,360.62a7.2,7.2,0,1,0,7.2,7.2A7.2,7.2,0,0,0,700.24,360.62Zm152.17,13.86a7.2,7.2,0,1,0,7.2,7.2A7.2,7.2,0,0,0,852.41,374.48Zm8.36,120a7.2,7.2,0,1,0,7.2,7.2A7.21,7.21,0,0,0,860.77,494.53ZM780.68,319.09a7.2,7.2,0,1,0,7.2,7.2A7.2,7.2,0,0,0,780.68,319.09Zm.36,407a7.2,7.2,0,1,0,7.2,7.2A7.2,7.2,0,0,0,781,726.12Zm43-163.25a7.2,7.2,0,1,0,7.2,7.2A7.2,7.2,0,0,0,824,562.87Zm104.74,64.58a7.2,7.2,0,1,0,7.2,7.2A7.2,7.2,0,0,0,928.77,627.45ZM717.43,358.38a7.2,7.2,0,1,0,7.2,7.2A7.2,7.2,0,0,0,717.43,358.38Zm56.09.8a7.2,7.2,0,1,0,7.2,7.2A7.2,7.2,0,0,0,773.52,359.18ZM635.1,376.13a7.2,7.2,0,1,0,7.2,7.2A7.2,7.2,0,0,0,635.1,376.13Zm-16.61-34a7.2,7.2,0,1,0,7.2,7.2A7.2,7.2,0,0,0,618.49,342.13ZM786,575.61a7.2,7.2,0,1,0,7.2,7.2A7.2,7.2,0,0,0,786,575.61Zm11.8,86.87a7.2,7.2,0,1,0,7.2,7.2A7.2,7.2,0,0,0,797.78,662.48ZM734.9,404.88a7.2,7.2,0,1,0,7.2,7.2A7.2,7.2,0,0,0,734.9,404.88Zm9.39,77.47a7.2,7.2,0,1,0,7.2,7.2A7.2,7.2,0,0,0,744.29,482.35Zm-18.53-46.51A7.2,7.2,0,1,0,733,443,7.2,7.2,0,0,0,725.76,435.84Zm46.49,172.22a7.2,7.2,0,1,0,7.2,7.2A7.2,7.2,0,0,0,772.25,608.06Zm90-182.11a7.2,7.2,0,1,0,7.2,7.2A7.2,7.2,0,0,0,862.27,426Zm-33.6,11.54a7.2,7.2,0,1,0,7.2,7.2A7.2,7.2,0,0,0,828.67,437.49Zm-65.59-44.62a7.2,7.2,0,1,0,7.2,7.2A7.21,7.21,0,0,0,763.08,392.87Zm125.5,138a7.2,7.2,0,1,0,7.2,7.2A7.2,7.2,0,0,0,888.58,530.87ZM735.36,326.74a7.2,7.2,0,1,0,7.2,7.2A7.2,7.2,0,0,0,735.36,326.74ZM846.87,617.8a7.2,7.2,0,1,0,7.2,7.2A7.2,7.2,0,0,0,846.87,617.8Zm-40-235.62a7.2,7.2,0,1,0,7.2,7.2A7.2,7.2,0,0,0,806.87,382.18ZM729,342.28a7.2,7.2,0,1,0,7.2,7.2A7.2,7.2,0,0,0,729,342.28ZM672.56,457.5a7.2,7.2,0,1,0,7.2,7.2A7.2,7.2,0,0,0,672.56,457.5ZM890.22,607.44a7.2,7.2,0,1,0,7.2,7.2A7.2,7.2,0,0,0,890.22,607.44ZM683,291.42a7.2,7.2,0,1,0,7.2,7.2A7.2,7.2,0,0,0,683,291.42Zm64.28,252.13a7.2,7.2,0,1,0,7.2,7.2A7.2,7.2,0,0,0,747.32,543.55Zm-126-94.32a7.2,7.2,0,1,0,7.2,7.2A7.2,7.2,0,0,0,621.32,449.23Zm310.44-2.34a7.2,7.2,0,1,0,7.2,7.2A7.21,7.21,0,0,0,931.76,446.89ZM709.71,378a7.2,7.2,0,1,0,7.2,7.2A7.2,7.2,0,0,0,709.71,378ZM897.41,421a7.2,7.2,0,1,0,7.2,7.2A7.2,7.2,0,0,0,897.41,421Zm-47.66-84.28a7.2,7.2,0,1,0,7.2,7.2A7.2,7.2,0,0,0,849.75,336.67Zm-209,110.94a7.2,7.2,0,1,0,7.2,7.2A7.2,7.2,0,0,0,640.8,447.61ZM854,567.47a7.2,7.2,0,1,0,7.2,7.2A7.2,7.2,0,0,0,854,567.47Zm-43.25-68.81a7.2,7.2,0,1,0,7.2,7.2A7.2,7.2,0,0,0,810.73,498.66Zm-156.83-35a7.2,7.2,0,1,0,7.2,7.2A7.2,7.2,0,0,0,653.9,463.68Zm211.88,128a7.2,7.2,0,1,0,7.2,7.2A7.2,7.2,0,0,0,865.78,591.67ZM809.3,308.27a7.2,7.2,0,1,0,7.2,7.2A7.2,7.2,0,0,0,809.3,308.27ZM777,482.72a7.2,7.2,0,1,0,7.2,7.2A7.2,7.2,0,0,0,777,482.72ZM718.55,325.89a7.2,7.2,0,1,0,7.2,7.2A7.2,7.2,0,0,0,718.55,325.89Zm83.86,302.88a7.2,7.2,0,1,0,7.2,7.2A7.2,7.2,0,0,0,802.41,628.77ZM694.48,342.64a7.2,7.2,0,1,0,7.2,7.2A7.2,7.2,0,0,0,694.48,342.64Zm147.64,11.44a7.2,7.2,0,1,0,7.2,7.2A7.2,7.2,0,0,0,842.12,354.08Zm-61.74,39a7.2,7.2,0,1,0,7.2,7.2A7.2,7.2,0,0,0,780.38,393.1ZM763,510.38a7.2,7.2,0,1,0,7.2,7.2A7.2,7.2,0,0,0,763,510.38ZM868.29,459.6a7.2,7.2,0,1,0,7.2,7.2A7.21,7.21,0,0,0,868.29,459.6Zm-108.71,14a7.2,7.2,0,1,0,7.2,7.2A7.2,7.2,0,0,0,759.58,473.63Zm-101-28.31a7.2,7.2,0,1,0,7.2,7.2A7.2,7.2,0,0,0,658.56,445.32Zm269.07,37.15a7.2,7.2,0,1,0,7.2,7.2A7.2,7.2,0,0,0,927.63,482.47ZM857.92,661.78a7.2,7.2,0,1,0,7.2,7.2A7.2,7.2,0,0,0,857.92,661.78Zm-53.76,40.53a7.2,7.2,0,1,0,7.2,7.2A7.2,7.2,0,0,0,804.16,702.31Zm33-332.24a7.2,7.2,0,1,0,7.2,7.2A7.2,7.2,0,0,0,837.11,370.07Zm-92,240.12a7.2,7.2,0,1,0,7.2,7.2A7.2,7.2,0,0,0,745.16,610.19Zm102.31-9.38a7.2,7.2,0,1,0,7.2,7.2A7.2,7.2,0,0,0,847.47,600.81Zm46-86.13a7.2,7.2,0,1,0,7.2,7.2A7.2,7.2,0,0,0,893.48,514.68ZM769,571.51a7.2,7.2,0,1,0,7.2,7.2A7.2,7.2,0,0,0,769,571.51Zm49.51-101.18a7.2,7.2,0,1,0,7.2,7.2A7.2,7.2,0,0,0,818.48,470.33ZM617,372.47a7.2,7.2,0,1,0,7.2,7.2A7.2,7.2,0,0,0,617,372.47Zm12.77-42.41a7.2,7.2,0,1,0,7.2,7.2A7.2,7.2,0,0,0,629.78,330.06ZM591,347.11a7.2,7.2,0,1,0,7.2,7.2A7.2,7.2,0,0,0,591,347.11Zm148,181.7a7.2,7.2,0,1,0,7.2,7.2A7.2,7.2,0,0,0,739,528.81Zm15.09,67.67a7.2,7.2,0,1,0,7.2,7.2A7.2,7.2,0,0,0,754.08,596.48ZM693.53,424.32a7.2,7.2,0,1,0,7.2,7.2A7.2,7.2,0,0,0,693.53,424.32Zm123,293.46a7.2,7.2,0,1,0,7.2,7.2A7.2,7.2,0,0,0,816.56,717.78ZM742.48,464.06a7.2,7.2,0,1,0,7.2,7.2A7.2,7.2,0,0,0,742.48,464.06ZM617,465.59a7.2,7.2,0,1,0,7.2,7.2A7.2,7.2,0,0,0,617,465.59Zm76.18-158.75a7.2,7.2,0,1,0,7.2,7.2A7.2,7.2,0,0,0,693.16,306.84Zm139.9,285.71a7.2,7.2,0,1,0,7.2,7.2A7.2,7.2,0,0,0,833.06,592.55ZM723,416.72a7.2,7.2,0,1,0,7.2,7.2A7.2,7.2,0,0,0,723,416.72Zm161.21-6.35a7.2,7.2,0,1,0,7.2,7.2A7.2,7.2,0,0,0,884.16,410.37Zm-48.39,11.25a7.2,7.2,0,1,0,7.2,7.2A7.2,7.2,0,0,0,835.77,421.62Zm-58.08,99.6a7.2,7.2,0,1,0,7.2,7.2A7.2,7.2,0,0,0,777.69,521.22Zm-5-78.15a7.2,7.2,0,1,0,7.2,7.2A7.2,7.2,0,0,0,772.73,443.07Zm17.43,171.76a7.2,7.2,0,1,0,7.2,7.2A7.2,7.2,0,0,0,790.16,614.83Zm-4.78-19.5a7.2,7.2,0,1,0,7.2,7.2A7.2,7.2,0,0,0,785.38,595.33Zm94-199.56a7.2,7.2,0,1,0,7.2,7.2A7.2,7.2,0,0,0,879.37,395.77Zm-78,189.74a7.2,7.2,0,1,0,7.2,7.2A7.2,7.2,0,0,0,801.41,585.51ZM764.62,327.85a7.2,7.2,0,1,0,7.2,7.2A7.21,7.21,0,0,0,764.62,327.85ZM739.21,446.2a7.2,7.2,0,1,0,7.2,7.2A7.2,7.2,0,0,0,739.21,446.2Zm51.08-143.67a7.2,7.2,0,1,0,7.2,7.2A7.2,7.2,0,0,0,790.29,302.53Zm76.19,104.91a7.2,7.2,0,1,0,7.2,7.2A7.2,7.2,0,0,0,866.48,407.44ZM884,557.76a7.2,7.2,0,1,0,7.2,7.2A7.2,7.2,0,0,0,884,557.76Zm-16.21-172.2a7.2,7.2,0,1,0,7.2,7.2A7.2,7.2,0,0,0,867.75,385.56Zm-56.54,54a7.2,7.2,0,1,0,7.2,7.2A7.2,7.2,0,0,0,811.21,439.53Zm26.09-114a7.2,7.2,0,1,0,7.2,7.2A7.2,7.2,0,0,0,837.3,325.5ZM694.82,440.37a7.2,7.2,0,1,0,7.2,7.2A7.2,7.2,0,0,0,694.82,440.37ZM798.39,319.69a7.2,7.2,0,1,0,7.2,7.2A7.2,7.2,0,0,0,798.39,319.69Zm70.32,49.45a7.2,7.2,0,1,0,7.2,7.2A7.2,7.2,0,0,0,868.71,369.14Zm24.67,71.09a7.2,7.2,0,1,0,7.2,7.2A7.21,7.21,0,0,0,893.38,440.23Zm-15.75,64.36a7.2,7.2,0,1,0,7.2,7.2A7.2,7.2,0,0,0,877.63,504.59ZM874,441.06a7.2,7.2,0,1,0,7.2,7.2A7.2,7.2,0,0,0,874,441.06Zm-39.41,28.47a7.2,7.2,0,1,0,7.2,7.2A7.2,7.2,0,0,0,834.62,469.53Zm-41.15-29.64a7.2,7.2,0,1,0,7.2,7.2A7.2,7.2,0,0,0,793.47,439.89ZM766.21,636.74a7.2,7.2,0,1,0,7.2,7.2A7.2,7.2,0,0,0,766.21,636.74Zm97.41-159.8a7.2,7.2,0,1,0,7.2,7.2A7.21,7.21,0,0,0,863.62,476.94ZM841.24,555.6a7.2,7.2,0,1,0,7.2,7.2A7.2,7.2,0,0,0,841.24,555.6Zm-22.37,105a7.2,7.2,0,1,0,7.2,7.2A7.2,7.2,0,0,0,818.87,660.64ZM857.66,445.9a7.2,7.2,0,1,0,7.2,7.2A7.2,7.2,0,0,0,857.66,445.9ZM746.37,390.66a7.2,7.2,0,1,0,7.2,7.2A7.2,7.2,0,0,0,746.37,390.66Zm-152.71-3.3a7.2,7.2,0,1,0,7.2,7.2A7.2,7.2,0,0,0,593.66,387.36Zm160.75-29.51a7.2,7.2,0,1,0,7.2,7.2A7.2,7.2,0,0,0,754.41,357.85ZM650,331.36a7.2,7.2,0,1,0,7.2,7.2A7.21,7.21,0,0,0,650,331.36ZM800.58,424a7.2,7.2,0,1,0,7.2,7.2A7.2,7.2,0,0,0,800.58,424Zm-24.21-48a7.2,7.2,0,1,0,7.2,7.19A7.19,7.19,0,0,0,776.37,376ZM626.82,295.29a7.2,7.2,0,1,0,7.2,7.2A7.2,7.2,0,0,0,626.82,295.29Zm35.11,132.32a7.2,7.2,0,1,0,7.2,7.2A7.2,7.2,0,0,0,661.93,427.61ZM729,387.27a7.2,7.2,0,1,0,7.2,7.2A7.2,7.2,0,0,0,729,387.27ZM614.27,404.85a7.2,7.2,0,1,0,7.2,7.2A7.2,7.2,0,0,0,614.27,404.85Zm299.14,43.84a7.2,7.2,0,1,0,7.2,7.2A7.2,7.2,0,0,0,913.41,448.69ZM793.14,491.13a7.2,7.2,0,1,0,7.2,7.2A7.2,7.2,0,0,0,793.14,491.13ZM609.69,387.6a7.2,7.2,0,1,0,7.2,7.2A7.2,7.2,0,0,0,609.69,387.6Zm270,38a7.2,7.2,0,1,0,7.2,7.2A7.2,7.2,0,0,0,879.72,425.6ZM822.25,629.76a7.2,7.2,0,1,0,7.2,7.2A7.2,7.2,0,0,0,822.25,629.76Zm48.46-53.32a7.2,7.2,0,1,0,7.2,7.2A7.2,7.2,0,0,0,870.71,576.44Zm-19.3-112a7.2,7.2,0,1,0,7.2,7.2A7.2,7.2,0,0,0,851.41,464.49ZM762.49,311.18a7.2,7.2,0,1,0,7.2,7.2A7.2,7.2,0,0,0,762.49,311.18ZM777.9,502a7.2,7.2,0,1,0,7.2,7.2A7.2,7.2,0,0,0,777.9,502ZM677.49,341.62a7.2,7.2,0,1,0,7.2,7.2A7.2,7.2,0,0,0,677.49,341.62Zm114.36,34.17a7.2,7.2,0,1,0,7.2,7.2A7.2,7.2,0,0,0,791.85,375.79Zm48.31,75.39a7.2,7.2,0,1,0,7.2,7.2A7.2,7.2,0,0,0,840.16,451.18ZM925.64,663a7.2,7.2,0,1,0,7.2,7.2A7.2,7.2,0,0,0,925.64,663ZM726.9,474.74a7.2,7.2,0,1,0,7.2,7.2A7.2,7.2,0,0,0,726.9,474.74ZM830.59,612.22a7.2,7.2,0,1,0,7.2,7.2A7.2,7.2,0,0,0,830.59,612.22ZM812.78,534a7.2,7.2,0,1,0,7.2,7.2A7.2,7.2,0,0,0,812.78,534ZM692.05,456.43a7.2,7.2,0,1,0,7.2,7.2A7.2,7.2,0,0,0,692.05,456.43Zm19.54-113.95a7.2,7.2,0,1,0,7.2,7.2A7.21,7.21,0,0,0,711.59,342.48ZM663,283.7a7.2,7.2,0,1,0,7.2,7.2A7.2,7.2,0,0,0,663,283.7ZM644.84,429.33a7.2,7.2,0,1,0,7.2,7.2A7.2,7.2,0,0,0,644.84,429.33Zm65.4,18.89a7.2,7.2,0,1,0,7.2,7.2A7.2,7.2,0,0,0,710.24,448.22Zm33-75.18a7.2,7.2,0,1,0,7.2,7.2A7.2,7.2,0,0,0,743.19,373Zm108,211.22a7.2,7.2,0,1,0,7.2,7.2A7.2,7.2,0,0,0,851.2,584.26ZM703.73,290.62a7.2,7.2,0,1,0,7.2,7.2A7.2,7.2,0,0,0,703.73,290.62Zm-22.15,68a7.2,7.2,0,1,0,7.2,7.2A7.21,7.21,0,0,0,681.58,358.62Zm115.6,324.73a7.2,7.2,0,1,0,7.2,7.2A7.2,7.2,0,0,0,797.18,683.35ZM843.6,536.23a7.2,7.2,0,1,0,7.2,7.2A7.2,7.2,0,0,0,843.6,536.23ZM659.82,297.8A7.2,7.2,0,1,0,667,305,7.2,7.2,0,0,0,659.82,297.8ZM868.49,559.17a7.2,7.2,0,1,0,7.2,7.2A7.2,7.2,0,0,0,868.49,559.17ZM671.7,377a7.2,7.2,0,1,0,7.2,7.2A7.2,7.2,0,0,0,671.7,377Zm80.76,32.1a7.2,7.2,0,1,0,7.2,7.2A7.2,7.2,0,0,0,752.46,409.13Zm-15.36-53a7.2,7.2,0,1,0,7.2,7.2A7.21,7.21,0,0,0,737.1,356.1Zm32.69,232.61a7.2,7.2,0,1,0,7.2,7.2A7.2,7.2,0,0,0,769.79,588.71ZM907.87,432.94a7.2,7.2,0,1,0,7.2,7.2A7.2,7.2,0,0,0,907.87,432.94ZM800.93,602.75a7.2,7.2,0,1,0,7.2,7.2A7.2,7.2,0,0,0,800.93,602.75ZM789.28,410.19a7.2,7.2,0,1,0,7.2,7.2A7.2,7.2,0,0,0,789.28,410.19ZM760.45,528.82a7.2,7.2,0,1,0,7.2,7.2A7.2,7.2,0,0,0,760.45,528.82ZM660.26,345.88a7.2,7.2,0,1,0,7.2,7.2A7.2,7.2,0,0,0,660.26,345.88ZM836.88,574.5a7.2,7.2,0,1,0,7.2,7.2A7.2,7.2,0,0,0,836.88,574.5ZM643.4,395.33a7.2,7.2,0,1,0,7.2,7.2A7.2,7.2,0,0,0,643.4,395.33ZM875.55,618.54a7.2,7.2,0,1,0,7.2,7.2A7.2,7.2,0,0,0,875.55,618.54Zm-74.8,105.28A7.2,7.2,0,1,0,808,731,7.2,7.2,0,0,0,800.75,723.82ZM707.42,467.57a7.2,7.2,0,1,0,7.2,7.2A7.2,7.2,0,0,0,707.42,467.57ZM748,338.88a7.2,7.2,0,1,0,7.2,7.2A7.2,7.2,0,0,0,748,338.88ZM368.32,584.43a7.2,7.2,0,1,0,7.2,7.2A7.2,7.2,0,0,0,368.32,584.43Zm-36.78,71.15a7.2,7.2,0,1,0,7.2,7.2A7.2,7.2,0,0,0,331.54,655.58ZM298.4,672.16a7.2,7.2,0,1,0,7.2,7.2A7.2,7.2,0,0,0,298.4,672.16Zm29.31-35.38a7.2,7.2,0,1,0,7.2,7.2A7.2,7.2,0,0,0,327.71,636.78Zm-12-96.9a7.2,7.2,0,1,0,7.2,7.2A7.2,7.2,0,0,0,315.74,539.88Zm8.13,30.34a7.2,7.2,0,1,0,7.2,7.2A7.2,7.2,0,0,0,323.87,570.22ZM340.31,576a7.2,7.2,0,1,0,7.2,7.19A7.19,7.19,0,0,0,340.31,576Zm132.72-23a7.2,7.2,0,1,0,7.2,7.2A7.2,7.2,0,0,0,473,552.92ZM373.55,681.25a7.2,7.2,0,1,0,7.2,7.2A7.2,7.2,0,0,0,373.55,681.25Zm-21.22-73a7.2,7.2,0,1,0,7.2,7.2A7.2,7.2,0,0,0,352.33,608.27Zm-48.2-153.88a7.2,7.2,0,1,0,7.2,7.2A7.21,7.21,0,0,0,304.13,454.39Zm16.64,280.16a7.2,7.2,0,1,0,7.2,7.2A7.2,7.2,0,0,0,320.77,734.55Zm5.87,60.73a7.2,7.2,0,1,0,7.2,7.2A7.21,7.21,0,0,0,326.64,795.28ZM231.21,505.72a7.2,7.2,0,1,0,7.2,7.2A7.2,7.2,0,0,0,231.21,505.72Zm-4.53,15a7.2,7.2,0,1,0,7.2,7.2A7.2,7.2,0,0,0,226.68,520.74ZM423.49,592a7.2,7.2,0,1,0,7.2,7.2A7.2,7.2,0,0,0,423.49,592Zm-150.2-57.86a7.2,7.2,0,1,0,7.2,7.2A7.2,7.2,0,0,0,273.29,534.18Zm107.6-44.92a7.2,7.2,0,1,0,7.2,7.2A7.2,7.2,0,0,0,380.89,489.26ZM351.7,754.53a7.2,7.2,0,1,0,7.2,7.2A7.2,7.2,0,0,0,351.7,754.53Zm-37.65-91a7.2,7.2,0,1,0,7.2,7.2A7.2,7.2,0,0,0,314.05,663.48Zm97.81-106a7.2,7.2,0,1,0,7.2,7.2A7.2,7.2,0,0,0,411.86,557.52Zm-19.4,121.69a7.2,7.2,0,1,0,7.2,7.2A7.2,7.2,0,0,0,392.46,679.21Zm-16.8-133.73a7.2,7.2,0,1,0,7.2,7.2A7.2,7.2,0,0,0,375.66,545.48ZM358,551a7.2,7.2,0,1,0,7.2,7.2A7.2,7.2,0,0,0,358,551Zm-10.79-27a7.2,7.2,0,1,0,7.2,7.2A7.2,7.2,0,0,0,347.19,524Zm21.25,230.18a7.2,7.2,0,1,0,7.2,7.2A7.2,7.2,0,0,0,368.44,754.22ZM299.62,493.73a7.2,7.2,0,1,0,7.2,7.2A7.21,7.21,0,0,0,299.62,493.73ZM432.77,639a7.2,7.2,0,1,0,7.2,7.2A7.2,7.2,0,0,0,432.77,639Zm25.52-52a7.2,7.2,0,1,0,7.2,7.2A7.2,7.2,0,0,0,458.29,587.06ZM431.86,557.3a7.2,7.2,0,1,0,7.2,7.2A7.21,7.21,0,0,0,431.86,557.3ZM317.93,467.81a7.2,7.2,0,1,0,7.2,7.2A7.2,7.2,0,0,0,317.93,467.81Zm70,257.54a7.2,7.2,0,1,0,7.2,7.2A7.2,7.2,0,0,0,388,725.35Zm27.26-85a7.2,7.2,0,1,0,7.2,7.2A7.2,7.2,0,0,0,415.22,640.34Zm-87,193.19a7.2,7.2,0,1,0,7.2,7.2A7.2,7.2,0,0,0,328.25,833.53ZM296.43,639.4a7.2,7.2,0,1,0,7.2,7.2A7.2,7.2,0,0,0,296.43,639.4ZM417.5,607.75a7.2,7.2,0,1,0,7.2,7.2A7.2,7.2,0,0,0,417.5,607.75Zm-60.8-36.63a7.2,7.2,0,1,0,7.2,7.2A7.2,7.2,0,0,0,356.7,571.12Zm-9.09-63.61a7.2,7.2,0,1,0,7.2,7.2A7.2,7.2,0,0,0,347.61,507.51Zm-17.27,7a7.2,7.2,0,1,0,7.2,7.2A7.21,7.21,0,0,0,330.34,514.48Zm-29.1-40.17a7.2,7.2,0,1,0,7.2,7.2A7.2,7.2,0,0,0,301.24,474.31Zm-57.31,20a7.2,7.2,0,1,0,7.2,7.2A7.2,7.2,0,0,0,243.93,494.3Zm4.36-33.63a7.2,7.2,0,1,0,7.2,7.2A7.2,7.2,0,0,0,248.29,460.67ZM385,664.88a7.2,7.2,0,1,0,7.2,7.2A7.2,7.2,0,0,0,385,664.88Zm-.43,29.3a7.2,7.2,0,1,0,7.2,7.2A7.21,7.21,0,0,0,384.59,694.18ZM254.19,591.64a7.2,7.2,0,1,0,7.2,7.2A7.2,7.2,0,0,0,254.19,591.64ZM311,556.81a7.2,7.2,0,1,0,7.2,7.2A7.2,7.2,0,0,0,311,556.81Zm-42.45-3.24a7.2,7.2,0,1,0,7.2,7.2A7.2,7.2,0,0,0,268.54,553.57Zm58.11,65.89a7.2,7.2,0,1,0,7.2,7.19A7.2,7.2,0,0,0,326.65,619.46Zm-2.47,148.38a7.2,7.2,0,1,0,7.2,7.2A7.2,7.2,0,0,0,324.18,767.84Zm98.59-227a7.2,7.2,0,1,0,7.2,7.2A7.2,7.2,0,0,0,422.77,540.85Zm-89.1,212.58a7.2,7.2,0,1,0,7.2,7.2A7.2,7.2,0,0,0,333.67,753.43ZM386,603.11a7.2,7.2,0,1,0,7.2,7.2A7.2,7.2,0,0,0,386,603.11Zm-56.82-14.65a7.2,7.2,0,1,0,7.2,7.2A7.2,7.2,0,0,0,329.19,588.46Zm-34.25-78a7.2,7.2,0,1,0,7.2,7.2A7.2,7.2,0,0,0,294.94,510.43ZM362,533.28a7.2,7.2,0,1,0,7.2,7.2A7.2,7.2,0,0,0,362,533.28ZM299.9,688.67a7.2,7.2,0,1,0,7.2,7.2A7.2,7.2,0,0,0,299.9,688.67Zm1.46,66.38a7.2,7.2,0,1,0,7.2,7.2A7.2,7.2,0,0,0,301.36,755.05Zm38.56,94a7.2,7.2,0,1,0,7.2,7.2A7.2,7.2,0,0,0,339.92,849Zm109.9-220a7.2,7.2,0,1,0,7.2,7.2A7.2,7.2,0,0,0,449.82,629ZM367.73,479.47a7.2,7.2,0,1,0,7.2,7.2A7.2,7.2,0,0,0,367.73,479.47Zm-99.82-4.84a7.2,7.2,0,1,0,7.2,7.2A7.2,7.2,0,0,0,267.91,474.63Zm41.43,49a7.2,7.2,0,1,0,7.2,7.2A7.2,7.2,0,0,0,309.34,523.68ZM444,649.62a7.2,7.2,0,1,0,7.2,7.2A7.2,7.2,0,0,0,444,649.62ZM272,585.76a7.2,7.2,0,1,0,7.2,7.2A7.2,7.2,0,0,0,272,585.76ZM411.6,624a7.2,7.2,0,1,0,7.2,7.2A7.2,7.2,0,0,0,411.6,624ZM296.94,655.93a7.2,7.2,0,1,0,7.2,7.2A7.2,7.2,0,0,0,296.94,655.93ZM265,604.15a7.2,7.2,0,1,0,7.2,7.2A7.2,7.2,0,0,0,265,604.15Zm142,65.27a7.2,7.2,0,1,0,7.2,7.2A7.2,7.2,0,0,0,407,669.42Zm-87.11-220a7.2,7.2,0,1,0,7.2,7.2A7.2,7.2,0,0,0,319.85,449.45Zm64,56.81a7.2,7.2,0,1,0,7.2,7.2A7.2,7.2,0,0,0,383.87,506.26Zm15.72,105.8a7.2,7.2,0,1,0,7.2,7.2A7.2,7.2,0,0,0,399.59,612.06ZM283.9,547.5a7.2,7.2,0,1,0,7.2,7.2A7.2,7.2,0,0,0,283.9,547.5Zm158,44.22a7.2,7.2,0,1,0,7.2,7.2A7.2,7.2,0,0,0,441.85,591.72Zm-143.69,9.77a7.2,7.2,0,1,0,7.2,7.2A7.2,7.2,0,0,0,298.16,601.49ZM333.6,706.27a7.2,7.2,0,1,0,7.2,7.2A7.2,7.2,0,0,0,333.6,706.27ZM364,620.79a7.2,7.2,0,1,0,7.2,7.2A7.21,7.21,0,0,0,364,620.79Zm104.28-51.5a7.2,7.2,0,1,0,7.2,7.2A7.2,7.2,0,0,0,468.28,569.29ZM328.89,672.91a7.2,7.2,0,1,0,7.2,7.2A7.2,7.2,0,0,0,328.89,672.91Zm50.58,38.46a7.2,7.2,0,1,0,7.2,7.2A7.21,7.21,0,0,0,379.47,711.37Zm8.41-63.21a7.2,7.2,0,1,0,7.2,7.2A7.2,7.2,0,0,0,387.88,648.16ZM306.39,573a7.2,7.2,0,1,0,7.2,7.2A7.2,7.2,0,0,0,306.39,573ZM258.06,444.85a7.2,7.2,0,1,0,7.2,7.2A7.2,7.2,0,0,0,258.06,444.85Zm110.6,157.67a7.2,7.2,0,1,0,7.2,7.2A7.21,7.21,0,0,0,368.66,602.52Zm-94-163.2a7.2,7.2,0,1,0,7.2,7.2A7.2,7.2,0,0,0,274.63,439.32Zm6.62,173.22a7.2,7.2,0,1,0,7.2,7.2A7.2,7.2,0,0,0,281.25,612.54Zm72.87,73.21a7.2,7.2,0,1,0,7.2,7.2A7.2,7.2,0,0,0,354.12,685.75Zm-35.54-82.7a7.2,7.2,0,1,0,7.2,7.2A7.21,7.21,0,0,0,318.58,603.05Zm-27.67-74.71a7.2,7.2,0,1,0,7.2,7.2A7.21,7.21,0,0,0,290.91,528.34Zm37,23a7.2,7.2,0,1,0,7.2,7.2A7.2,7.2,0,0,0,327.87,551.34ZM241.05,530a7.2,7.2,0,1,0,7.2,7.2A7.2,7.2,0,0,0,241.05,530Zm76.17,184.79a7.2,7.2,0,1,0,7.2,7.2A7.2,7.2,0,0,0,317.22,714.77Zm22.84,23.67a7.2,7.2,0,1,0,7.2,7.2A7.2,7.2,0,0,0,340.06,738.44ZM453.33,609.22a7.2,7.2,0,1,0,7.2,7.2A7.2,7.2,0,0,0,453.33,609.22ZM279.53,498.38a7.2,7.2,0,1,0,7.2,7.2A7.2,7.2,0,0,0,279.53,498.38Zm125.73,42a7.2,7.2,0,1,0,7.2,7.2A7.2,7.2,0,0,0,405.26,540.39ZM240.6,546.54a7.2,7.2,0,1,0,7.2,7.2A7.21,7.21,0,0,0,240.6,546.54ZM347.35,491.4a7.2,7.2,0,1,0,7.2,7.2A7.2,7.2,0,0,0,347.35,491.4ZM315.09,681.22a7.2,7.2,0,1,0,7.2,7.2A7.2,7.2,0,0,0,315.09,681.22ZM364.91,514a7.2,7.2,0,1,0,7.2,7.2A7.21,7.21,0,0,0,364.91,514Zm-31.85,208.6a7.2,7.2,0,1,0,7.2,7.2A7.2,7.2,0,0,0,333.06,722.62Zm-15.49-25.3a7.2,7.2,0,1,0,7.2,7.2A7.2,7.2,0,0,0,317.57,697.32Zm-55.3-207a7.2,7.2,0,1,0,7.2,7.2A7.2,7.2,0,0,0,262.27,490.29Zm43.86,281.13a7.2,7.2,0,1,0,7.2,7.2A7.21,7.21,0,0,0,306.13,771.42Zm43.75-295.63a7.2,7.2,0,1,0,7.2,7.2A7.2,7.2,0,0,0,349.88,475.79Zm73.88,181A7.2,7.2,0,1,0,431,664,7.21,7.21,0,0,0,423.76,656.75Zm-91.25-177a7.2,7.2,0,1,0,7.2,7.2A7.2,7.2,0,0,0,332.51,479.73Zm71.07,173.48a7.2,7.2,0,1,0,7.2,7.2A7.2,7.2,0,0,0,403.58,653.21Zm-29.23,80.38a7.2,7.2,0,1,0,7.2,7.2A7.2,7.2,0,0,0,374.35,733.59Zm-138.89-173a7.2,7.2,0,1,0,7.2,7.2A7.2,7.2,0,0,0,235.46,560.63Zm75.35,27.47a7.2,7.2,0,1,0,7.2,7.2A7.2,7.2,0,0,0,310.81,588.1Zm60.86-26a7.2,7.2,0,1,0,7.2,7.2A7.2,7.2,0,0,0,371.67,562.06Zm84.47-22.28a7.2,7.2,0,1,0,7.2,7.2A7.2,7.2,0,0,0,456.14,539.78Zm-73.79,79.6a7.2,7.2,0,1,0,7.2,7.2A7.2,7.2,0,0,0,382.35,619.38Zm-5.59,15.86a7.2,7.2,0,1,0,7.2,7.2A7.2,7.2,0,0,0,376.76,635.24ZM415,525.08a7.2,7.2,0,1,0,7.2,7.2A7.2,7.2,0,0,0,415,525.08Zm-22.6,31a7.2,7.2,0,1,0,7.2,7.2A7.2,7.2,0,0,0,392.35,556.11Zm44.24,52.65a7.2,7.2,0,1,0,7.2,7.2A7.21,7.21,0,0,0,436.59,608.76ZM299.8,543a7.2,7.2,0,1,0,7.2,7.2A7.2,7.2,0,0,0,299.8,543Zm50.34,161.22a7.2,7.2,0,1,0,7.2,7.2A7.2,7.2,0,0,0,350.14,704.21ZM245.69,576.28a7.2,7.2,0,1,0,7.2,7.2A7.2,7.2,0,0,0,245.69,576.28Zm150.8,56.52a7.2,7.2,0,1,0,7.2,7.2A7.2,7.2,0,0,0,396.49,632.8Zm-32.78,36a7.2,7.2,0,1,0,7.2,7.2A7.2,7.2,0,0,0,363.71,668.75Zm.83-172a7.2,7.2,0,1,0,7.2,7.2A7.2,7.2,0,0,0,364.54,496.7ZM336.49,604.79a7.2,7.2,0,1,0,7.2,7.2A7.2,7.2,0,0,0,336.49,604.79Zm-90.7-92.06a7.2,7.2,0,1,0,7.2,7.2A7.2,7.2,0,0,0,245.79,512.73Zm192.55,23.92a7.2,7.2,0,1,0,7.2,7.2A7.2,7.2,0,0,0,438.34,536.65Zm-80.1,201.29a7.2,7.2,0,1,0,7.2,7.2A7.2,7.2,0,0,0,358.24,737.94ZM307.9,615.08a7.2,7.2,0,1,0,7.2,7.2A7.2,7.2,0,0,0,307.9,615.08ZM335.56,689a7.2,7.2,0,1,0,7.2,7.2A7.2,7.2,0,0,0,335.56,689Zm69.32,1.64a7.2,7.2,0,1,0,7.2,7.2A7.2,7.2,0,0,0,404.88,690.64Zm46.67-135.51a7.2,7.2,0,1,0,7.2,7.2A7.2,7.2,0,0,0,451.55,555.13ZM396,706.15a7.2,7.2,0,1,0,7.2,7.2A7.2,7.2,0,0,0,396,706.15ZM282.52,597a7.2,7.2,0,1,0,7.2,7.2A7.2,7.2,0,0,0,282.52,597Zm34.17,154.82a7.2,7.2,0,1,0,7.2,7.2A7.2,7.2,0,0,0,316.69,751.77ZM248.54,477.61a7.2,7.2,0,1,0,7.2,7.2A7.2,7.2,0,0,0,248.54,477.61Zm10.67,46.32a7.2,7.2,0,1,0,7.2,7.2A7.2,7.2,0,0,0,259.21,523.93Zm190,47.81a7.2,7.2,0,1,0,7.2,7.2A7.2,7.2,0,0,0,449.16,571.74ZM284.65,482.39a7.2,7.2,0,1,0,7.2,7.2A7.21,7.21,0,0,0,284.65,482.39Zm32.76,322.82a7.2,7.2,0,1,0,7.2,7.2A7.2,7.2,0,0,0,317.41,805.21Zm-3.77-158a7.2,7.2,0,1,0,7.2,7.2A7.2,7.2,0,0,0,313.64,647.21Zm-19.87-85.43A7.2,7.2,0,1,0,301,569,7.2,7.2,0,0,0,293.77,561.78ZM256.36,540.9a7.2,7.2,0,1,0,7.2,7.2A7.2,7.2,0,0,0,256.36,540.9Zm176.55,34.68a7.2,7.2,0,1,0,7.2,7.2A7.2,7.2,0,0,0,432.91,575.58ZM345.41,769.7a7.2,7.2,0,1,0,7.2,7.2A7.21,7.21,0,0,0,345.41,769.7ZM277.23,516.32a7.2,7.2,0,1,0,7.2,7.2A7.2,7.2,0,0,0,277.23,516.32ZM293,623a7.2,7.2,0,1,0,7.2,7.2A7.2,7.2,0,0,0,293,623Zm123.44-47.89a7.2,7.2,0,1,0,7.2,7.2A7.2,7.2,0,0,0,416.41,575.14Zm-30,13a7.2,7.2,0,1,0,7.2,7.2A7.2,7.2,0,0,0,386.37,588.12Zm-46.59,211.1a7.2,7.2,0,1,0,7.2,7.2A7.2,7.2,0,0,0,339.78,799.22Zm9.64-76.84a7.2,7.2,0,1,0,7.2,7.2A7.2,7.2,0,0,0,349.42,722.38Zm9.88-84.58a7.2,7.2,0,1,0,7.2,7.2A7.2,7.2,0,0,0,359.3,637.8ZM334.87,462.71a7.2,7.2,0,1,0,7.2,7.2A7.21,7.21,0,0,0,334.87,462.71ZM345,670.93a7.2,7.2,0,1,0,7.2,7.2A7.2,7.2,0,0,0,345,670.93ZM285.81,463.69a7.2,7.2,0,1,0,7.2,7.2A7.21,7.21,0,0,0,285.81,463.69ZM262,506.57a7.2,7.2,0,1,0,7.2,7.2A7.2,7.2,0,0,0,262,506.57ZM333.5,781.41a7.2,7.2,0,1,0,7.2,7.2A7.2,7.2,0,0,0,333.5,781.41Zm-33.68-76.67a7.2,7.2,0,1,0,7.2,7.2A7.2,7.2,0,0,0,299.82,704.74ZM404.51,592.87a7.2,7.2,0,1,0,7.2,7.2A7.2,7.2,0,0,0,404.51,592.87Zm-62.19-34a7.2,7.2,0,1,0,7.2,7.2A7.2,7.2,0,0,0,342.32,558.92Zm-28.47-52.45a7.2,7.2,0,1,0,7.2,7.2A7.2,7.2,0,0,0,313.85,506.47Zm52.87,192.19a7.2,7.2,0,1,0,7.2,7.2A7.2,7.2,0,0,0,366.72,698.66Zm33.09-124.93a7.2,7.2,0,1,0,7.2,7.2A7.2,7.2,0,0,0,399.81,573.73Zm-71.48-43.57a7.2,7.2,0,1,0,7.2,7.2A7.2,7.2,0,0,0,328.33,530.16Zm42,122.66a7.2,7.2,0,1,0,7.2,7.2A7.21,7.21,0,0,0,370.33,652.82ZM224.65,541.44a7.2,7.2,0,1,0,7.2,7.2A7.21,7.21,0,0,0,224.65,541.44Zm119.74,82.88a7.2,7.2,0,1,0,7.2,7.2A7.21,7.21,0,0,0,344.39,624.32ZM290.72,445.79a7.2,7.2,0,1,0,7.2,7.2A7.21,7.21,0,0,0,290.72,445.79ZM262.13,572.94a7.2,7.2,0,1,0,7.2,7.2A7.2,7.2,0,0,0,262.13,572.94Zm120.58-.59a7.2,7.2,0,1,0,7.2,7.2A7.2,7.2,0,0,0,382.71,572.35Zm-130-13.23a7.2,7.2,0,1,0,7.2,7.2A7.2,7.2,0,0,0,252.7,559.12ZM343,540.61a7.2,7.2,0,1,0,7.2,7.2A7.2,7.2,0,0,0,343,540.61ZM364.76,718a7.2,7.2,0,1,0,7.2,7.2A7.2,7.2,0,0,0,364.76,718Zm64.81-94.58a7.2,7.2,0,1,0,7.2,7.2A7.21,7.21,0,0,0,429.57,623.42ZM342.52,827.48a7.2,7.2,0,1,0,7.2,7.2A7.2,7.2,0,0,0,342.52,827.48ZM315,785.15a7.2,7.2,0,1,0,7.2,7.2A7.21,7.21,0,0,0,315,785.15Zm-11.89-47a7.2,7.2,0,1,0,7.2,7.2A7.2,7.2,0,0,0,303.13,738.16ZM389.9,537.48a7.2,7.2,0,1,0,7.2,7.2A7.2,7.2,0,0,0,389.9,537.48ZM328.42,816.22a7.2,7.2,0,1,0,7.2,7.2A7.21,7.21,0,0,0,328.42,816.22ZM291.6,582.09a7.2,7.2,0,1,0,7.2,7.2A7.2,7.2,0,0,0,291.6,582.09ZM378.3,525a7.2,7.2,0,1,0,7.2,7.2A7.2,7.2,0,0,0,378.3,525Zm18.1-4.26a7.2,7.2,0,1,0,7.2,7.2A7.2,7.2,0,0,0,396.4,520.7ZM269,457.82a7.2,7.2,0,1,0,7.2,7.2A7.2,7.2,0,0,0,269,457.82Zm73.76,183.82a7.2,7.2,0,1,0,7.2,7.2A7.2,7.2,0,0,0,342.79,641.64ZM311.3,630.48a7.2,7.2,0,1,0,7.2,7.2A7.2,7.2,0,0,0,311.3,630.48Zm40.45,24.81a7.2,7.2,0,1,0,7.2,7.2A7.2,7.2,0,0,0,351.75,655.29Zm-36.1-168.9a7.2,7.2,0,1,0,7.2,7.2A7.2,7.2,0,0,0,315.65,486.39ZM302.87,721.74a7.2,7.2,0,1,0,7.2,7.2A7.2,7.2,0,0,0,302.87,721.74ZM330,497.43a7.2,7.2,0,1,0,7.2,7.2A7.2,7.2,0,0,0,330,497.43Zm-51.31,70.79a7.2,7.2,0,1,0,7.2,7.2A7.2,7.2,0,0,0,278.69,568.22Zm71.54,22.44a7.2,7.2,0,1,0,7.2,7.2A7.2,7.2,0,0,0,350.23,590.66Zm992.49,90.54a7.2,7.2,0,1,0,7.2,7.2A7.2,7.2,0,0,0,1342.72,681.2Zm90.82-27a7.2,7.2,0,1,0,7.2,7.2A7.2,7.2,0,0,0,1433.54,654.2Zm-7.82,17.41a7.2,7.2,0,1,0,7.2,7.2A7.2,7.2,0,0,0,1425.72,671.61ZM1388.87,718a7.2,7.2,0,1,0,7.2,7.2A7.2,7.2,0,0,0,1388.87,718Zm-105.21,11.82a7.2,7.2,0,1,0,7.2,7.2A7.2,7.2,0,0,0,1283.66,729.79Zm134.46-75a7.2,7.2,0,1,0,7.2,7.2A7.21,7.21,0,0,0,1418.12,654.82Zm-57.21,54.41a7.2,7.2,0,1,0,7.2,7.2A7.2,7.2,0,0,0,1360.91,709.23Zm83.25-21.61a7.2,7.2,0,1,0,7.2,7.2A7.2,7.2,0,0,0,1444.16,687.62Zm-34.4,48a7.2,7.2,0,1,0,7.2,7.2A7.2,7.2,0,0,0,1409.76,735.59Zm4.4,16.65a7.2,7.2,0,1,0,7.2,7.2A7.2,7.2,0,0,0,1414.16,752.24ZM1371.94,645.1a7.2,7.2,0,1,0,7.2,7.2A7.2,7.2,0,0,0,1371.94,645.1ZM1326.68,666a7.2,7.2,0,1,0,7.2,7.2A7.2,7.2,0,0,0,1326.68,666Zm8.68-30.66a7.2,7.2,0,1,0,7.2,7.2A7.2,7.2,0,0,0,1335.36,635.31Zm-32.16,88.32a7.2,7.2,0,1,0,7.2,7.19A7.19,7.19,0,0,0,1303.2,723.63Zm146.78-73a7.2,7.2,0,1,0,7.2,7.2A7.2,7.2,0,0,0,1450,650.66Zm-59.54,19.93a7.2,7.2,0,1,0,7.2,7.2A7.2,7.2,0,0,0,1390.44,670.59Zm15.63,46.62a7.2,7.2,0,1,0,7.2,7.2A7.2,7.2,0,0,0,1406.07,717.21Zm-29.29-35.45a7.2,7.2,0,1,0,7.2,7.2A7.2,7.2,0,0,0,1376.78,681.76Zm80.81-15.26a7.2,7.2,0,1,0,7.2,7.2A7.2,7.2,0,0,0,1457.59,666.5ZM1337.8,711.15a7.2,7.2,0,1,0,7.2,7.2A7.2,7.2,0,0,0,1337.8,711.15Zm66.28-49.06a7.2,7.2,0,1,0,7.2,7.2A7.2,7.2,0,0,0,1404.08,662.09Zm-29.72,1.18a7.2,7.2,0,1,0,7.2,7.2A7.2,7.2,0,0,0,1374.36,663.27Zm30-35.4a7.2,7.2,0,1,0,7.2,7.2A7.2,7.2,0,0,0,1404.34,627.87Zm-85.15,72.19a7.2,7.2,0,1,0,7.2,7.2A7.2,7.2,0,0,0,1319.19,700.06Zm72.49-103.4a7.2,7.2,0,1,0,7.2,7.2A7.2,7.2,0,0,0,1391.68,596.66Zm-102.93,81a7.2,7.2,0,1,0,7.2,7.2A7.2,7.2,0,0,0,1288.75,677.65ZM1404,644.19a7.2,7.2,0,1,0,7.2,7.2A7.2,7.2,0,0,0,1404,644.19Zm-84.21,72.32a7.2,7.2,0,1,0,7.2,7.2A7.2,7.2,0,0,0,1319.76,716.51Zm103,6.62a7.2,7.2,0,1,0,7.2,7.2A7.2,7.2,0,0,0,1422.71,723.13Zm-36.46-89.56a7.2,7.2,0,1,0,7.2,7.2A7.2,7.2,0,0,0,1386.25,633.57Zm-6.93-31a7.2,7.2,0,1,0,7.2,7.2A7.2,7.2,0,0,0,1379.32,602.53Zm-74.9,85.4a7.2,7.2,0,1,0,7.2,7.2A7.21,7.21,0,0,0,1304.42,687.93Zm83.9-36a7.2,7.2,0,1,0,7.2,7.2A7.2,7.2,0,0,0,1388.32,651.9Zm6,51.7a7.2,7.2,0,1,0,7.2,7.2A7.2,7.2,0,0,0,1394.37,703.6Zm44.69-65.91a7.2,7.2,0,1,0,7.2,7.2A7.2,7.2,0,0,0,1439.06,637.69Zm12.84,75.19a7.2,7.2,0,1,0,7.2,7.2A7.2,7.2,0,0,0,1451.9,712.88Zm-165-18.45a7.2,7.2,0,1,0,7.2,7.2A7.21,7.21,0,0,0,1286.9,694.43Zm66.1-53.95a7.2,7.2,0,1,0,7.2,7.2A7.2,7.2,0,0,0,1353,640.48Zm-31.15,8.78a7.2,7.2,0,1,0,7.2,7.2A7.2,7.2,0,0,0,1321.85,649.26Zm25.88-24.57a7.2,7.2,0,1,0,7.2,7.2A7.2,7.2,0,0,0,1347.73,624.69Zm-44.31,81a7.2,7.2,0,1,0,7.2,7.2A7.2,7.2,0,0,0,1303.42,705.74Zm106.09-27.69a7.2,7.2,0,1,0,7.2,7.2A7.2,7.2,0,0,0,1409.51,678.05Zm133.08,87.14a7.2,7.2,0,1,0,7.2,7.2A7.2,7.2,0,0,0,1542.59,765.19Zm-121.1-129.35a7.2,7.2,0,1,0,7.2,7.2A7.2,7.2,0,0,0,1421.49,635.84Zm-55.56-6.23a7.2,7.2,0,1,0,7.2,7.2A7.2,7.2,0,0,0,1365.93,629.61Zm32.12,157.13a7.2,7.2,0,1,0,7.2,7.2A7.2,7.2,0,0,0,1398.05,786.74Zm-53.8-120.87a7.2,7.2,0,1,0,7.2,7.19A7.19,7.19,0,0,0,1344.25,665.87Zm91-61.32a7.2,7.2,0,1,0,7.2,7.2A7.2,7.2,0,0,0,1435.26,604.55Zm-79.21,8.51a7.2,7.2,0,1,0,7.2,7.2A7.21,7.21,0,0,0,1356.05,613.06Zm82.13,91.8a7.2,7.2,0,1,0,7.2,7.2A7.2,7.2,0,0,0,1438.18,704.86Zm-63.58-87.39a7.2,7.2,0,1,0,7.2,7.2A7.2,7.2,0,0,0,1374.6,617.47Zm-12.33,72.89a7.2,7.2,0,1,0,7.2,7.2A7.2,7.2,0,0,0,1362.27,690.36Zm-28.55,4.29a7.2,7.2,0,1,0,7.2,7.2A7.2,7.2,0,0,0,1333.72,694.65Zm105,29.87a7.2,7.2,0,1,0,7.2,7.2A7.2,7.2,0,0,0,1438.74,724.52Zm-64.82-3.31a7.2,7.2,0,1,0,7.2,7.2A7.2,7.2,0,0,0,1373.92,721.21Zm-51.39-39a7.2,7.2,0,1,0,7.2,7.2A7.2,7.2,0,0,0,1322.53,682.22Zm136.73,15.29a7.2,7.2,0,1,0,7.2,7.2A7.2,7.2,0,0,0,1459.26,697.51ZM1358,656a7.2,7.2,0,1,0,7.2,7.2A7.21,7.21,0,0,0,1358,656Zm-9,42.48a7.2,7.2,0,1,0,7.2,7.2A7.2,7.2,0,0,0,1349,698.43Zm93.47-28a7.2,7.2,0,1,0,7.2,7.2A7.2,7.2,0,0,0,1442.48,670.44Zm-49.19,16.86a7.2,7.2,0,1,0,7.2,7.2A7.2,7.2,0,0,0,1393.29,687.3ZM1459,558.54a7.2,7.2,0,1,0,7.2,7.2A7.2,7.2,0,0,0,1459,558.54ZM1308.48,671.1a7.2,7.2,0,1,0,7.2,7.2A7.21,7.21,0,0,0,1308.48,671.1Zm-1.94-16.63a7.2,7.2,0,1,0,7.2,7.2A7.2,7.2,0,0,0,1306.54,654.47Zm156,26.94a7.2,7.2,0,1,0,7.2,7.2A7.2,7.2,0,0,0,1462.59,681.41Zm-70.71-65a7.2,7.2,0,1,0,7.2,7.2A7.2,7.2,0,0,0,1391.88,616.37ZM1288.1,712.43a7.2,7.2,0,1,0,7.2,7.2A7.2,7.2,0,0,0,1288.1,712.43Zm152.16-165.36a7.2,7.2,0,1,0,7.2,7.2A7.2,7.2,0,0,0,1440.26,547.07ZM1421.82,706.8a7.2,7.2,0,1,0,7.2,7.2A7.2,7.2,0,0,0,1421.82,706.8Zm-129.51-44.19a7.2,7.2,0,1,0,7.2,7.2A7.2,7.2,0,0,0,1292.31,662.61ZM1393,735.18a7.2,7.2,0,1,0,7.2,7.2A7.2,7.2,0,0,0,1393,735.18Zm42.55-113.58a7.2,7.2,0,1,0,7.2,7.2A7.2,7.2,0,0,0,1435.54,621.6Zm-7.85,118.74a7.2,7.2,0,1,0,7.2,7.2A7.2,7.2,0,0,0,1427.69,740.34ZM1377.44,701a7.2,7.2,0,1,0,7.2,7.2A7.2,7.2,0,0,0,1377.44,701Zm48.84-12a7.2,7.2,0,1,0,7.2,7.2A7.2,7.2,0,0,0,1426.28,689Zm-31.54,63.36a7.2,7.2,0,1,0,7.2,7.2A7.2,7.2,0,0,0,1394.74,752.34ZM1360,673.71a7.2,7.2,0,1,0,7.2,7.2A7.2,7.2,0,0,0,1360,673.71Zm142.19,128a7.2,7.2,0,1,0,7.2,7.2A7.2,7.2,0,0,0,1502.14,801.71Zm-93-105.71a7.2,7.2,0,1,0,7.2,7.2A7.2,7.2,0,0,0,1409.19,696ZM1339,651.19a7.2,7.2,0,1,0,7.2,7.2A7.2,7.2,0,0,0,1339,651.19ZM178.7,70.86a7.2,7.2,0,1,0,7.2,7.2A7.2,7.2,0,0,0,178.7,70.86Zm57.74-21.25a7.2,7.2,0,1,0,7.2,7.2A7.2,7.2,0,0,0,236.44,49.61Zm12.71,110a7.2,7.2,0,1,0,7.2,7.2A7.2,7.2,0,0,0,249.15,159.65ZM127,119.67a7.2,7.2,0,1,0,7.2,7.2A7.2,7.2,0,0,0,127,119.67Zm-19.36,43.38a7.2,7.2,0,1,0,7.2,7.2A7.2,7.2,0,0,0,107.66,163.05ZM71.8,243.67a7.2,7.2,0,1,0,7.2,7.2A7.2,7.2,0,0,0,71.8,243.67ZM90.25,114.86a7.2,7.2,0,1,0,7.2,7.2A7.2,7.2,0,0,0,90.25,114.86Zm132.2,17a7.2,7.2,0,1,0,7.2,7.2A7.2,7.2,0,0,0,222.45,131.82ZM106.3,144.43a7.2,7.2,0,1,0,7.2,7.2A7.2,7.2,0,0,0,106.3,144.43ZM589.72,0a7.2,7.2,0,1,0,7.2,7.2A7.2,7.2,0,0,0,589.72,0ZM128,302a7.2,7.2,0,1,0,7.2,7.2A7.2,7.2,0,0,0,128,302ZM83.18,75.88a7.2,7.2,0,1,0,7.2,7.2A7.2,7.2,0,0,0,83.18,75.88ZM231.49,79a7.2,7.2,0,1,0,7.2,7.2A7.2,7.2,0,0,0,231.49,79ZM406.24,12.09a7.2,7.2,0,1,0,7.2,7.2A7.21,7.21,0,0,0,406.24,12.09ZM286.6,172.38a7.2,7.2,0,1,0,7.2,7.2A7.2,7.2,0,0,0,286.6,172.38Zm34.59,35.18a7.2,7.2,0,1,0,7.2,7.2A7.2,7.2,0,0,0,321.19,207.56ZM94.5,188.23a7.2,7.2,0,1,0,7.2,7.2A7.2,7.2,0,0,0,94.5,188.23Zm21,82.55a7.2,7.2,0,1,0,7.2,7.2A7.21,7.21,0,0,0,115.49,270.78Zm32.59-177.9a7.2,7.2,0,1,0,7.2,7.2A7.21,7.21,0,0,0,148.08,92.88ZM196.6,88a7.2,7.2,0,1,0,7.2,7.2A7.2,7.2,0,0,0,196.6,88ZM97,228.73a7.2,7.2,0,1,0,7.2,7.2A7.2,7.2,0,0,0,97,228.73Zm153.32,19.09a7.2,7.2,0,1,0,7.2,7.2A7.2,7.2,0,0,0,250.27,247.82ZM496.63,79.14a7.2,7.2,0,1,0,7.2,7.2A7.21,7.21,0,0,0,496.63,79.14Zm-268,18a7.2,7.2,0,1,0,7.2,7.2A7.2,7.2,0,0,0,228.67,97.12Zm157.91,68.57a7.2,7.2,0,1,0,7.2,7.2A7.21,7.21,0,0,0,386.58,165.69ZM83,289.74a7.2,7.2,0,1,0,7.2,7.2A7.2,7.2,0,0,0,83,289.74Zm23.7-167.39a7.2,7.2,0,1,0,7.2,7.2A7.2,7.2,0,0,0,106.74,122.35Zm440-66.46a7.2,7.2,0,1,0,7.2,7.2A7.2,7.2,0,0,0,546.7,55.89ZM220.56,244.64a7.2,7.2,0,1,0,7.2,7.2A7.2,7.2,0,0,0,220.56,244.64ZM573.64,30.81a7.2,7.2,0,1,0,7.2,7.2A7.2,7.2,0,0,0,573.64,30.81ZM147.44,188.23a7.2,7.2,0,1,0,7.2,7.2A7.21,7.21,0,0,0,147.44,188.23ZM142,295.89a7.2,7.2,0,1,0,7.2,7.2A7.2,7.2,0,0,0,142,295.89ZM133.48,85.53a7.2,7.2,0,1,0,7.2,7.2A7.2,7.2,0,0,0,133.48,85.53ZM522.29,57.39a7.2,7.2,0,1,0,7.2,7.2A7.2,7.2,0,0,0,522.29,57.39ZM110,180.19a7.2,7.2,0,1,0,7.2,7.2A7.21,7.21,0,0,0,110,180.19ZM86.63,260.3a7.2,7.2,0,1,0,7.2,7.2A7.2,7.2,0,0,0,86.63,260.3Zm128,1.95a7.2,7.2,0,1,0,7.2,7.2A7.2,7.2,0,0,0,214.59,262.25ZM118.65,133.89a7.2,7.2,0,1,0,7.2,7.2A7.2,7.2,0,0,0,118.65,133.89ZM524.42,22a7.2,7.2,0,1,0,7.2,7.2A7.2,7.2,0,0,0,524.42,22ZM228.13,163.62a7.2,7.2,0,1,0,7.2,7.2A7.21,7.21,0,0,0,228.13,163.62ZM490,13.44a7.2,7.2,0,1,0,7.2,7.2A7.21,7.21,0,0,0,490,13.44ZM250.09,75.77a7.2,7.2,0,1,0,7.2,7.2A7.2,7.2,0,0,0,250.09,75.77ZM561.46,55a7.2,7.2,0,1,0,7.2,7.2A7.2,7.2,0,0,0,561.46,55ZM132.82,228.64a7.2,7.2,0,1,0,7.2,7.2A7.2,7.2,0,0,0,132.82,228.64Zm8.66-55.9a7.2,7.2,0,1,0,7.2,7.2A7.2,7.2,0,0,0,141.48,172.74Zm124.31-27.5a7.2,7.2,0,1,0,7.2,7.2A7.2,7.2,0,0,0,265.79,145.24Zm-27,137.67a7.2,7.2,0,1,0,7.2,7.2A7.2,7.2,0,0,0,238.82,282.91ZM178.48,376a7.2,7.2,0,1,0,7.2,7.2A7.2,7.2,0,0,0,178.48,376Zm-18-200.16a7.2,7.2,0,1,0,7.2,7.2A7.2,7.2,0,0,0,160.49,175.84ZM175.87,303a7.2,7.2,0,1,0,7.2,7.2A7.2,7.2,0,0,0,175.87,303Zm-73.08-15.42a7.2,7.2,0,1,0,7.2,7.2A7.2,7.2,0,0,0,102.79,287.53ZM505.42,8.27a7.2,7.2,0,1,0,7.2,7.2A7.2,7.2,0,0,0,505.42,8.27ZM280.48,89.66a7.2,7.2,0,1,0,7.2,7.2A7.2,7.2,0,0,0,280.48,89.66Zm-23.07,87.07a7.2,7.2,0,1,0,7.2,7.2A7.2,7.2,0,0,0,257.41,176.73Zm9,15.41a7.2,7.2,0,1,0,7.2,7.2A7.2,7.2,0,0,0,266.43,192.14ZM188,247.19a7.2,7.2,0,1,0,7.2,7.2A7.2,7.2,0,0,0,188,247.19Zm27.71-18.14a7.2,7.2,0,1,0,7.2,7.2A7.2,7.2,0,0,0,215.74,229.05ZM144,71a7.2,7.2,0,1,0,7.2,7.2A7.2,7.2,0,0,0,144,71ZM276.3,219.13a7.2,7.2,0,1,0,7.2,7.2A7.2,7.2,0,0,0,276.3,219.13ZM111.14,351.57a7.2,7.2,0,1,0,7.2,7.2A7.2,7.2,0,0,0,111.14,351.57ZM332.56,179.5a7.2,7.2,0,1,0,7.2,7.2A7.2,7.2,0,0,0,332.56,179.5ZM124.75,318.69a7.2,7.2,0,1,0,7.2,7.2A7.21,7.21,0,0,0,124.75,318.69Zm121.41-209.3a7.2,7.2,0,1,0,7.2,7.2A7.2,7.2,0,0,0,246.16,109.39ZM192.6,416.6a7.2,7.2,0,1,0,7.2,7.2A7.2,7.2,0,0,0,192.6,416.6ZM112,302.52a7.2,7.2,0,1,0,7.2,7.2A7.2,7.2,0,0,0,112,302.52ZM71,63.14a7.2,7.2,0,1,0,7.2,7.2A7.2,7.2,0,0,0,71,63.14ZM553.69,2.86a7.2,7.2,0,1,0,7.2,7.2A7.2,7.2,0,0,0,553.69,2.86ZM33,83.09a7.2,7.2,0,1,0,7.2,7.2A7.21,7.21,0,0,0,33,83.09Zm339.76,51.42a7.2,7.2,0,1,0,7.2,7.2A7.2,7.2,0,0,0,372.75,134.51ZM91.84,172.76A7.2,7.2,0,1,0,99,180,7.2,7.2,0,0,0,91.84,172.76Zm188.8,65.1a7.2,7.2,0,1,0,7.2,7.2A7.2,7.2,0,0,0,280.64,237.86ZM532.78,68.59a7.2,7.2,0,1,0,7.2,7.2A7.2,7.2,0,0,0,532.78,68.59ZM95.06,274.47a7.2,7.2,0,1,0,7.2,7.2A7.2,7.2,0,0,0,95.06,274.47Zm111,5.12a7.2,7.2,0,1,0,7.2,7.2A7.2,7.2,0,0,0,206.08,279.59ZM187.81,146.21a7.2,7.2,0,1,0,7.2,7.2A7.2,7.2,0,0,0,187.81,146.21ZM211,100.86a7.2,7.2,0,1,0,7.2,7.2A7.2,7.2,0,0,0,211,100.86ZM165.91,231.71a7.2,7.2,0,1,0,7.2,7.2A7.2,7.2,0,0,0,165.91,231.71Zm-15.63,19.72a7.2,7.2,0,1,0,7.2,7.2A7.2,7.2,0,0,0,150.28,251.43Zm60.16-59.53a7.2,7.2,0,1,0,7.2,7.2A7.2,7.2,0,0,0,210.44,191.9Zm-97.7,5.95a7.2,7.2,0,1,0,7.2,7.2A7.2,7.2,0,0,0,112.74,197.85Zm168.45-44.62a7.2,7.2,0,1,0,7.2,7.2A7.21,7.21,0,0,0,281.19,153.23Zm-71.28,17.92a7.2,7.2,0,1,0,7.2,7.2A7.2,7.2,0,0,0,209.91,171.15Zm108.5,17.72a7.2,7.2,0,1,0,7.2,7.2A7.2,7.2,0,0,0,318.41,188.87ZM180,90.06a7.2,7.2,0,1,0,7.2,7.2A7.21,7.21,0,0,0,180,90.06Zm55.09,56.16a7.2,7.2,0,1,0,7.2,7.2A7.2,7.2,0,0,0,235.06,146.22ZM534.13,48.43a7.2,7.2,0,1,0,7.2,7.2A7.2,7.2,0,0,0,534.13,48.43ZM133.76,334a7.2,7.2,0,1,0,7.2,7.2A7.2,7.2,0,0,0,133.76,334Zm159.3-106.9a7.2,7.2,0,1,0,7.2,7.2A7.2,7.2,0,0,0,293.06,227.05Zm-173.9,25a7.2,7.2,0,1,0,7.2,7.2A7.2,7.2,0,0,0,119.16,252Zm1,34.74a7.2,7.2,0,1,0,7.2,7.2A7.2,7.2,0,0,0,120.11,286.75Zm95.06-74.2a7.2,7.2,0,1,0,7.2,7.2A7.2,7.2,0,0,0,215.17,212.55Zm-8.82-93.65a7.2,7.2,0,1,0,7.2,7.2A7.2,7.2,0,0,0,206.35,118.9Zm-13.44-12.54a7.2,7.2,0,1,0,7.2,7.2A7.2,7.2,0,0,0,192.91,106.36Zm20.83-24.43a7.2,7.2,0,1,0,7.2,7.2A7.2,7.2,0,0,0,213.74,81.93ZM109.12,65.68a7.2,7.2,0,1,0,7.2,7.2A7.2,7.2,0,0,0,109.12,65.68ZM352.76,195.87a7.2,7.2,0,1,0,7.2,7.2A7.2,7.2,0,0,0,352.76,195.87ZM276.3,181.5a7.2,7.2,0,1,0,7.2,7.2A7.2,7.2,0,0,0,276.3,181.5ZM166.81,192.94a7.2,7.2,0,1,0,7.2,7.2A7.2,7.2,0,0,0,166.81,192.94ZM112.93,369.86a7.2,7.2,0,1,0,7.2,7.2A7.2,7.2,0,0,0,112.93,369.86ZM331.16,163.59a7.2,7.2,0,1,0,7.2,7.2A7.2,7.2,0,0,0,331.16,163.59Zm82.2-94.37a7.2,7.2,0,1,0,7.2,7.2A7.2,7.2,0,0,0,413.36,69.22ZM481.86,94a7.2,7.2,0,1,0,7.2,7.2A7.2,7.2,0,0,0,481.86,94Zm-264,55.84a7.2,7.2,0,1,0,7.2,7.2A7.2,7.2,0,0,0,217.88,149.83Zm-45.76,9.71a7.2,7.2,0,1,0,7.2,7.2A7.2,7.2,0,0,0,172.12,159.54ZM193,295.82a7.2,7.2,0,1,0,7.2,7.2A7.2,7.2,0,0,0,193,295.82Zm52.68-74.62a7.2,7.2,0,1,0,7.2,7.2A7.2,7.2,0,0,0,245.71,221.2ZM215.06,42a7.2,7.2,0,1,0,7.2,7.2A7.2,7.2,0,0,0,215.06,42ZM384.53,18.29a7.2,7.2,0,1,0,7.2,7.2A7.21,7.21,0,0,0,384.53,18.29Zm-160,164.13a7.2,7.2,0,1,0,7.2,7.2A7.2,7.2,0,0,0,224.5,182.42Zm113,19.67a7.2,7.2,0,1,0,7.2,7.2A7.2,7.2,0,0,0,337.51,202.09ZM146.92,126.21a7.2,7.2,0,1,0,7.2,7.2A7.2,7.2,0,0,0,146.92,126.21Zm158.14,74.72a7.2,7.2,0,1,0,7.2,7.2A7.2,7.2,0,0,0,305.06,200.93ZM396.89,81.65a7.2,7.2,0,1,0,7.2,7.2A7.21,7.21,0,0,0,396.89,81.65Zm-41.38,51.77a7.2,7.2,0,1,0,7.2,7.2A7.2,7.2,0,0,0,355.51,133.42ZM91.89,320.69a7.2,7.2,0,1,0,7.2,7.2A7.2,7.2,0,0,0,91.89,320.69ZM231,257.48a7.2,7.2,0,1,0,7.2,7.2A7.2,7.2,0,0,0,231,257.48ZM19.63,115.62a7.2,7.2,0,1,0,7.2,7.2A7.2,7.2,0,0,0,19.63,115.62Zm344.22.19a7.2,7.2,0,1,0,7.2,7.2A7.2,7.2,0,0,0,363.85,115.81ZM106.26,215.06a7.2,7.2,0,1,0,7.2,7.2A7.2,7.2,0,0,0,106.26,215.06ZM517.5,39.74a7.2,7.2,0,1,0,7.2,7.2A7.2,7.2,0,0,0,517.5,39.74ZM350,111.66a7.2,7.2,0,1,0,7.2,7.2A7.2,7.2,0,0,0,350,111.66ZM424.71,3a7.2,7.2,0,1,0,7.2,7.2A7.2,7.2,0,0,0,424.71,3ZM111,106.58a7.2,7.2,0,1,0,7.2,7.2A7.21,7.21,0,0,0,111,106.58Zm60.22,105.54a7.2,7.2,0,1,0,7.2,7.2A7.2,7.2,0,0,0,171.26,212.12Zm5.53-100.81a7.2,7.2,0,1,0,7.2,7.2A7.2,7.2,0,0,0,176.79,111.31Zm9.93,15.56a7.2,7.2,0,1,0,7.2,7.2A7.2,7.2,0,0,0,186.72,126.87ZM133.08,263.11a7.2,7.2,0,1,0,7.2,7.2A7.2,7.2,0,0,0,133.08,263.11Zm69.76-108.48a7.2,7.2,0,1,0,7.2,7.2A7.2,7.2,0,0,0,202.84,154.63Zm-31-12.54a7.2,7.2,0,1,0,7.2,7.2A7.21,7.21,0,0,0,171.89,142.09ZM229,205.72a7.2,7.2,0,1,0,7.2,7.2A7.2,7.2,0,0,0,229,205.72Zm63.48,5a7.2,7.2,0,1,0,7.2,7.2A7.2,7.2,0,0,0,292.46,210.76ZM60.9,97.82a7.2,7.2,0,1,0,7.2,7.2A7.2,7.2,0,0,0,60.9,97.82ZM495.45,100a7.2,7.2,0,1,0,7.2,7.2A7.21,7.21,0,0,0,495.45,100ZM153.89,203.4a7.2,7.2,0,1,0,7.2,7.2A7.2,7.2,0,0,0,153.89,203.4Zm.82-43.42a7.2,7.2,0,1,0,7.2,7.2A7.2,7.2,0,0,0,154.71,160ZM516.18,74.59a7.2,7.2,0,1,0,7.2,7.2A7.2,7.2,0,0,0,516.18,74.59ZM294,79.38a7.2,7.2,0,1,0,7.2,7.2A7.2,7.2,0,0,0,294,79.38ZM242,127a7.2,7.2,0,1,0,7.2,7.2A7.2,7.2,0,0,0,242,127Zm40.88,71.33a7.2,7.2,0,1,0,7.2,7.2A7.2,7.2,0,0,0,282.83,198.33ZM67.19,81.44a7.2,7.2,0,1,0,7.2,7.2A7.2,7.2,0,0,0,67.19,81.44ZM537.27,5.85a7.2,7.2,0,1,0,7.2,7.2A7.21,7.21,0,0,0,537.27,5.85ZM53.7,70.12a7.2,7.2,0,1,0,7.2,7.2A7.2,7.2,0,0,0,53.7,70.12Zm446-25.57a7.2,7.2,0,1,0,7.2,7.2A7.21,7.21,0,0,0,499.71,44.55ZM609.78,2.24a7.2,7.2,0,1,0,7.2,7.2A7.2,7.2,0,0,0,609.78,2.24ZM571,44.88a7.2,7.2,0,1,0,7.2,7.2A7.2,7.2,0,0,0,571,44.88ZM407.57,187.05a7.2,7.2,0,1,0,7.2,7.2A7.2,7.2,0,0,0,407.57,187.05ZM123.09,213.21a7.2,7.2,0,1,0,7.2,7.2A7.21,7.21,0,0,0,123.09,213.21Zm18.09,2a7.2,7.2,0,1,0,7.2,7.2A7.2,7.2,0,0,0,141.18,215.18ZM75.31,274.45a7.2,7.2,0,1,0,7.2,7.2A7.2,7.2,0,0,0,75.31,274.45Zm111.52-59.54a7.2,7.2,0,1,0,7.2,7.2A7.2,7.2,0,0,0,186.83,214.91ZM161.63,81.62a7.2,7.2,0,1,0,7.2,7.2A7.2,7.2,0,0,0,161.63,81.62ZM536.17,34a7.2,7.2,0,1,0,7.2,7.2A7.2,7.2,0,0,0,536.17,34Zm-352.39,163a7.2,7.2,0,1,0,7.2,7.2A7.21,7.21,0,0,0,183.78,196.93ZM251,141.78a7.2,7.2,0,1,0,7.2,7.2A7.2,7.2,0,0,0,251,141.78ZM268.69,29.5a7.2,7.2,0,1,0,7.2,7.2A7.2,7.2,0,0,0,268.69,29.5Zm79.73,16.14a7.2,7.2,0,1,0,7.2,7.2A7.2,7.2,0,0,0,348.42,45.64ZM226,301.14a7.2,7.2,0,1,0,7.2,7.2A7.2,7.2,0,0,0,226,301.14Zm71.6-115.61a7.2,7.2,0,1,0,7.2,7.2A7.2,7.2,0,0,0,297.61,185.53ZM90.1,61.18a7.2,7.2,0,1,0,7.2,7.2A7.2,7.2,0,0,0,90.1,61.18ZM553.91,37.42a7.2,7.2,0,1,0,7.2,7.2A7.2,7.2,0,0,0,553.91,37.42ZM156.5,219.56a7.2,7.2,0,1,0,7.2,7.2A7.2,7.2,0,0,0,156.5,219.56Zm15.81,190.38a7.2,7.2,0,1,0,7.2,7.2A7.2,7.2,0,0,0,172.31,409.94Zm16.08-131.07a7.2,7.2,0,1,0,7.2,7.2A7.2,7.2,0,0,0,188.39,278.87ZM88.6,244a7.2,7.2,0,1,0,7.2,7.2A7.2,7.2,0,0,0,88.6,244Zm8.62-146.4a7.2,7.2,0,1,0,7.2,7.2A7.2,7.2,0,0,0,97.22,97.57ZM310,69.83a7.2,7.2,0,1,0,7.2,7.2A7.21,7.21,0,0,0,310,69.83Zm-152.17,42a7.2,7.2,0,1,0,7.2,7.2A7.2,7.2,0,0,0,157.86,111.86ZM99.17,79.63a7.2,7.2,0,1,0,7.2,7.2A7.2,7.2,0,0,0,99.17,79.63Zm284.34,8.83a7.2,7.2,0,1,0,7.2,7.2A7.2,7.2,0,0,0,383.51,88.46ZM7.2,110.4a7.2,7.2,0,1,0,7.2,7.2A7.2,7.2,0,0,0,7.2,110.4Zm86.18,92.14a7.2,7.2,0,1,0,7.2,7.2A7.2,7.2,0,0,0,93.38,202.54Zm12.4,40a7.2,7.2,0,1,0,7.2,7.2A7.2,7.2,0,0,0,105.78,242.53Zm60.5-115.67a7.2,7.2,0,1,0,7.2,7.2A7.21,7.21,0,0,0,166.28,126.86Zm182.54,40.5a7.2,7.2,0,1,0,7.2,7.2A7.2,7.2,0,0,0,348.82,167.36ZM332.87,21.74a7.2,7.2,0,1,0,7.2,7.2A7.2,7.2,0,0,0,332.87,21.74ZM133.67,245.2a7.2,7.2,0,1,0,7.2,7.2A7.2,7.2,0,0,0,133.67,245.2Zm61.81-61.87a7.2,7.2,0,1,0,7.2,7.2A7.2,7.2,0,0,0,195.48,183.33ZM506.05,25.52a7.2,7.2,0,1,0,7.2,7.2A7.2,7.2,0,0,0,506.05,25.52ZM237.57,238.2a7.2,7.2,0,1,0,7.2,7.2A7.2,7.2,0,0,0,237.57,238.2Zm-110.51-137a7.2,7.2,0,1,0,7.2,7.2A7.2,7.2,0,0,0,127.06,101.19ZM265.62,259.07a7.2,7.2,0,1,0,7.2,7.2A7.21,7.21,0,0,0,265.62,259.07ZM508.52,58.66a7.2,7.2,0,1,0,7.2,7.2A7.2,7.2,0,0,0,508.52,58.66ZM108.36,318.8a7.2,7.2,0,1,0,7.2,7.2A7.2,7.2,0,0,0,108.36,318.8Zm48.85-15.44a7.2,7.2,0,1,0,7.2,7.2A7.2,7.2,0,0,0,157.21,303.36ZM453.4,17.42a7.2,7.2,0,1,0,7.2,7.2A7.21,7.21,0,0,0,453.4,17.42ZM121.92,151.25a7.2,7.2,0,1,0,7.2,7.2A7.2,7.2,0,0,0,121.92,151.25Zm12,48.7a7.2,7.2,0,1,0,7.2,7.2A7.2,7.2,0,0,0,133.91,200ZM149,234.76a7.2,7.2,0,1,0,7.2,7.2A7.2,7.2,0,0,0,149,234.76Zm210-84.4a7.2,7.2,0,1,0,7.2,7.2A7.2,7.2,0,0,0,359,150.36ZM370.55,48.2a7.2,7.2,0,1,0,7.2,7.2A7.21,7.21,0,0,0,370.55,48.2Zm-233,343a7.2,7.2,0,1,0,7.2,7.2A7.2,7.2,0,0,0,137.51,391.17ZM180.42,263a7.2,7.2,0,1,0,7.2,7.2A7.2,7.2,0,0,0,180.42,263Zm48.89,64.89a7.2,7.2,0,1,0,7.2,7.2A7.2,7.2,0,0,0,229.31,327.92ZM114.81,87.13a7.2,7.2,0,1,0,7.2,7.2A7.2,7.2,0,0,0,114.81,87.13ZM494.93,63.54a7.2,7.2,0,1,0,7.2,7.2A7.2,7.2,0,0,0,494.93,63.54Zm-99.87-7.25a7.2,7.2,0,1,0,7.2,7.2A7.2,7.2,0,0,0,395.06,56.29ZM189.91,165.47a7.2,7.2,0,1,0,7.2,7.2A7.2,7.2,0,0,0,189.91,165.47ZM305.15,41a7.2,7.2,0,1,0,7.2,7.2A7.21,7.21,0,0,0,305.15,41ZM81.63,92.06a7.2,7.2,0,1,0,7.2,7.2A7.2,7.2,0,0,0,81.63,92.06Zm184.1,149.2a7.2,7.2,0,1,0,7.2,7.2A7.2,7.2,0,0,0,265.73,241.26Zm-9.16,31.56a7.2,7.2,0,1,0,7.2,7.2A7.2,7.2,0,0,0,256.57,272.82Zm3.58-220.14a7.2,7.2,0,1,0,7.2,7.2A7.2,7.2,0,0,0,260.15,52.68ZM155.13,286a7.2,7.2,0,1,0,7.2,7.2A7.2,7.2,0,0,0,155.13,286ZM170.5,392.1a7.2,7.2,0,1,0,7.2,7.2A7.2,7.2,0,0,0,170.5,392.1ZM138.64,155a7.2,7.2,0,1,0,7.2,7.2A7.2,7.2,0,0,0,138.64,155ZM93.83,134.07a7.2,7.2,0,1,0,7.2,7.2A7.2,7.2,0,0,0,93.83,134.07Zm79.65,155.42a7.2,7.2,0,1,0,7.2,7.2A7.2,7.2,0,0,0,173.48,289.49ZM71.71,258.91a7.2,7.2,0,1,0,7.2,7.2A7.2,7.2,0,0,0,71.71,258.91Zm128.19-54.1a7.2,7.2,0,1,0,7.2,7.2A7.2,7.2,0,0,0,199.9,204.81ZM561.57,19.3a7.2,7.2,0,1,0,7.2,7.2A7.2,7.2,0,0,0,561.57,19.3ZM122.2,384a7.2,7.2,0,1,0,7.2,7.2A7.2,7.2,0,0,0,122.2,384ZM480.73,76.73a7.2,7.2,0,1,0,7.2,7.2A7.2,7.2,0,0,0,480.73,76.73ZM571.37,1.58a7.2,7.2,0,1,0,7.2,7.2A7.2,7.2,0,0,0,571.37,1.58ZM141.43,109.29a7.2,7.2,0,1,0,7.2,7.2A7.2,7.2,0,0,0,141.43,109.29ZM447.62.23a7.2,7.2,0,1,0,7.2,7.2A7.2,7.2,0,0,0,447.62.23ZM135.17,137.92a7.2,7.2,0,1,0,7.2,7.2A7.2,7.2,0,0,0,135.17,137.92Zm183.54,16.14a7.2,7.2,0,1,0,7.2,7.2A7.2,7.2,0,0,0,318.71,154.06ZM49.47,86.12a7.2,7.2,0,1,0,7.2,7.2A7.2,7.2,0,0,0,49.47,86.12Zm104.74,56.74a7.2,7.2,0,1,0,7.2,7.2A7.2,7.2,0,0,0,154.21,142.86Zm-36,192.64a7.2,7.2,0,1,0,7.2,7.2A7.2,7.2,0,0,0,118.24,335.5Zm220-189a7.2,7.2,0,1,0,7.2,7.2A7.2,7.2,0,0,0,338.25,146.51Zm-210.51,206a7.2,7.2,0,1,0,7.2,7.2A7.2,7.2,0,0,0,127.74,352.54Zm28.66,44.52a7.2,7.2,0,1,0,7.2,7.2A7.2,7.2,0,0,0,156.4,397.06ZM308.27,220.62a7.2,7.2,0,1,0,7.2,7.2A7.2,7.2,0,0,0,308.27,220.62ZM343.46,68.37a7.2,7.2,0,1,0,7.2,7.2A7.2,7.2,0,0,0,343.46,68.37ZM165.39,97.86a7.2,7.2,0,1,0,7.2,7.2A7.2,7.2,0,0,0,165.39,97.86ZM521.07,6.34a7.2,7.2,0,1,0,7.2,7.2A7.21,7.21,0,0,0,521.07,6.34ZM86,215.47a7.2,7.2,0,1,0,7.2,7.2A7.2,7.2,0,0,0,86,215.47Zm77,45.79a7.2,7.2,0,1,0,7.2,7.2A7.2,7.2,0,0,0,163,261.26Zm-70-107a7.2,7.2,0,1,0,7.2,7.2A7.2,7.2,0,0,0,93.07,154.29Zm175.08,9.57a7.2,7.2,0,1,0,7.2,7.2A7.2,7.2,0,0,0,268.15,163.86ZM203.63,446a7.2,7.2,0,1,0,7.2,7.2A7.21,7.21,0,0,0,203.63,446ZM127.28,185.43a7.2,7.2,0,1,0,7.2,7.2A7.21,7.21,0,0,0,127.28,185.43Zm7.89,95a7.2,7.2,0,1,0,7.2,7.2A7.2,7.2,0,0,0,135.17,280.42ZM579.29,15.25a7.2,7.2,0,1,0,7.2,7.2A7.2,7.2,0,0,0,579.29,15.25ZM95.36,303.75a7.2,7.2,0,1,0,7.2,7.2A7.2,7.2,0,0,0,95.36,303.75Zm108.17-59.83a7.2,7.2,0,1,0,7.2,7.2A7.2,7.2,0,0,0,203.53,243.92ZM102.59,335.26a7.2,7.2,0,1,0,7.2,7.2A7.2,7.2,0,0,0,102.59,335.26Zm.25-76.68a7.2,7.2,0,1,0,7.2,7.2A7.21,7.21,0,0,0,102.84,258.58ZM269.91,78.14a7.2,7.2,0,1,0,7.2,7.2A7.2,7.2,0,0,0,269.91,78.14ZM196,70.73a7.2,7.2,0,1,0,7.2,7.2A7.2,7.2,0,0,0,196,70.73Zm-120.92,35a7.2,7.2,0,1,0,7.2,7.2A7.21,7.21,0,0,0,75.09,105.7ZM544.67,20.23a7.2,7.2,0,1,0,7.2,7.2A7.2,7.2,0,0,0,544.67,20.23ZM278.15,381.71a7.2,7.2,0,1,0,7.2,7.2A7.21,7.21,0,0,0,278.15,381.71ZM382.48,149.32a7.2,7.2,0,1,0,7.2,7.2A7.2,7.2,0,0,0,382.48,149.32ZM311.63,71.75a7.2,7.2,0,1,0,7.2,7.2A7.21,7.21,0,0,0,311.63,71.75Zm-68.3,193.44a7.2,7.2,0,1,0,7.2,7.2A7.2,7.2,0,0,0,243.33,265.19ZM149.1,270a7.2,7.2,0,1,0,7.2,7.2A7.2,7.2,0,0,0,149.1,270Zm50.55-44.36a7.2,7.2,0,1,0,7.2,7.2A7.2,7.2,0,0,0,199.65,225.65Zm168.5-60.22a7.2,7.2,0,1,0,7.2,7.2A7.21,7.21,0,0,0,368.15,165.43ZM223.8,278.7a7.2,7.2,0,1,0,7.2,7.2A7.2,7.2,0,0,0,223.8,278.7ZM403.69,156.15a7.2,7.2,0,1,0,7.2,7.2A7.2,7.2,0,0,0,403.69,156.15ZM591.48,27.94a7.2,7.2,0,1,0,7.2,7.2A7.2,7.2,0,0,0,591.48,27.94ZM124.72,71a7.2,7.2,0,1,0,7.2,7.2A7.2,7.2,0,0,0,124.72,71ZM596.54,13.47a7.2,7.2,0,1,0,7.2,7.2A7.2,7.2,0,0,0,596.54,13.47ZM117,231.12a7.2,7.2,0,1,0,7.2,7.2A7.2,7.2,0,0,0,117,231.12Zm-74.5-129a7.2,7.2,0,1,0,7.2,7.2A7.2,7.2,0,0,0,42.54,102.08Zm349.61,30.31a7.2,7.2,0,1,0,7.2,7.2A7.21,7.21,0,0,0,392.15,132.39Zm-223.57,143a7.2,7.2,0,1,0,7.2,7.2A7.2,7.2,0,0,0,168.58,275.39Zm-39.31,95.08a7.2,7.2,0,1,0,7.2,7.2A7.2,7.2,0,0,0,129.27,370.47ZM25.83,103.54a7.2,7.2,0,1,0,7.2,7.2A7.2,7.2,0,0,0,25.83,103.54Zm115.33,210.7a7.2,7.2,0,1,0,7.2,7.2A7.2,7.2,0,0,0,141.16,314.24Zm62.77-178.08a7.2,7.2,0,1,0,7.2,7.2A7.2,7.2,0,0,0,203.93,136.16Zm-21.5,95.19a7.2,7.2,0,1,0,7.2,7.2A7.2,7.2,0,0,0,182.43,231.35ZM262.27,96.23a7.2,7.2,0,1,0,7.2,7.2A7.21,7.21,0,0,0,262.27,96.23ZM341.34,128a7.2,7.2,0,1,0,7.2,7.2A7.2,7.2,0,0,0,341.34,128Zm-180-62a7.2,7.2,0,1,0,7.2,7.2A7.2,7.2,0,0,0,161.3,65.93ZM240,176a7.2,7.2,0,1,0,7.2,7.2A7.2,7.2,0,0,0,240,176Zm-70,71a7.2,7.2,0,1,0,7.2,7.2A7.2,7.2,0,0,0,170,247Zm141.13-75.28a7.2,7.2,0,1,0,7.2,7.2A7.2,7.2,0,0,0,311.14,171.71ZM177.8,178.25a7.2,7.2,0,1,0,7.2,7.2A7.21,7.21,0,0,0,177.8,178.25Zm33.26,118.24a7.2,7.2,0,1,0,7.2,7.2A7.2,7.2,0,0,0,211.06,296.49ZM507.3,88a7.2,7.2,0,1,0,7.2,7.2A7.2,7.2,0,0,0,507.3,88ZM245.55,92a7.2,7.2,0,1,0,7.2,7.2A7.2,7.2,0,0,0,245.55,92ZM474.34,15a7.2,7.2,0,1,0,7.2,7.2A7.2,7.2,0,0,0,474.34,15ZM124.6,168.36a7.2,7.2,0,1,0,7.2,7.2A7.2,7.2,0,0,0,124.6,168.36ZM489.42,32.92a7.2,7.2,0,1,0,7.2,7.2A7.2,7.2,0,0,0,489.42,32.92ZM226.15,114.51a7.2,7.2,0,1,0,7.2,7.2A7.2,7.2,0,0,0,226.15,114.51Zm-148,114.4a7.2,7.2,0,1,0,7.2,7.2A7.2,7.2,0,0,0,78.15,228.91ZM198,262.47a7.2,7.2,0,1,0,7.2,7.2A7.2,7.2,0,0,0,198,262.47ZM972.47,116.3a7.2,7.2,0,1,0,7.2,7.2A7.2,7.2,0,0,0,972.47,116.3Zm-117.19,28a7.2,7.2,0,1,0,7.2,7.2A7.2,7.2,0,0,0,855.28,144.31Zm365.23-40.79a7.2,7.2,0,1,0,7.2,7.2A7.2,7.2,0,0,0,1220.51,103.52Zm-2.2,229.72a7.2,7.2,0,1,0,7.2,7.2A7.2,7.2,0,0,0,1218.31,333.24Zm-27,55.41a7.2,7.2,0,1,0,7.2,7.2A7.21,7.21,0,0,0,1191.27,388.65Zm-38.49-103.09a7.2,7.2,0,1,0,7.2,7.2A7.2,7.2,0,0,0,1152.78,285.56ZM834.26,187.13a7.2,7.2,0,1,0,7.2,7.2A7.2,7.2,0,0,0,834.26,187.13Zm420.8,234.38a7.2,7.2,0,1,0,7.2,7.2A7.2,7.2,0,0,0,1255.06,421.51ZM753,200.39a7.2,7.2,0,1,0,7.2,7.2A7.2,7.2,0,0,0,753,200.39Zm390.37,33.32a7.2,7.2,0,1,0,7.2,7.2A7.2,7.2,0,0,0,1143.39,233.71Zm-125.77-7.87a7.2,7.2,0,1,0,7.2,7.2A7.2,7.2,0,0,0,1017.62,225.84Zm40.48,53.86a7.2,7.2,0,1,0,7.2,7.2A7.21,7.21,0,0,0,1058.1,279.7ZM596.49,85.41a7.2,7.2,0,1,0,7.2,7.2A7.2,7.2,0,0,0,596.49,85.41Zm557.93,250.53a7.2,7.2,0,1,0,7.2,7.2A7.2,7.2,0,0,0,1154.42,335.94Zm-161,30.46a7.2,7.2,0,1,0,7.2,7.2A7.2,7.2,0,0,0,993.45,366.4Zm251.45,66.67a7.2,7.2,0,1,0,7.2,7.2A7.21,7.21,0,0,0,1244.9,433.07ZM1044,328a7.2,7.2,0,1,0,7.2,7.2A7.2,7.2,0,0,0,1044,328Zm66.64-75.67a7.2,7.2,0,1,0,7.2,7.2A7.2,7.2,0,0,0,1110.68,252.3ZM1213,414a7.2,7.2,0,1,0,7.2,7.2A7.2,7.2,0,0,0,1213,414ZM1030.42,100.74a7.2,7.2,0,1,0,7.2,7.2A7.2,7.2,0,0,0,1030.42,100.74ZM1137.14,337.3a7.2,7.2,0,1,0,7.2,7.2A7.2,7.2,0,0,0,1137.14,337.3ZM676.91,209.42a7.2,7.2,0,1,0,7.2,7.2A7.21,7.21,0,0,0,676.91,209.42Zm511.6-130.74a7.2,7.2,0,1,0,7.2,7.2A7.2,7.2,0,0,0,1188.51,78.68ZM978.4,383.55a7.2,7.2,0,1,0,7.2,7.2A7.2,7.2,0,0,0,978.4,383.55ZM932.21,123a7.2,7.2,0,1,0,7.2,7.2A7.2,7.2,0,0,0,932.21,123Zm280,16a7.2,7.2,0,1,0,7.2,7.2A7.2,7.2,0,0,0,1212.25,139.05ZM746,82.6a7.2,7.2,0,1,0,7.2,7.2A7.2,7.2,0,0,0,746,82.6Zm42.18,59.57a7.2,7.2,0,1,0,7.2,7.2A7.2,7.2,0,0,0,788.17,142.17ZM929.31,317.05a7.2,7.2,0,1,0,7.2,7.2A7.2,7.2,0,0,0,929.31,317.05ZM1089.24,82.81a7.2,7.2,0,1,0,7.2,7.2A7.2,7.2,0,0,0,1089.24,82.81ZM743.05,182.35a7.2,7.2,0,1,0,7.2,7.2A7.2,7.2,0,0,0,743.05,182.35Zm616.59,99.18a7.2,7.2,0,1,0,7.2,7.2A7.2,7.2,0,0,0,1359.64,281.53Zm-79.63-57a7.2,7.2,0,1,0,7.2,7.2A7.2,7.2,0,0,0,1280,224.57ZM655.68,138.19a7.2,7.2,0,1,0,7.2,7.2A7.2,7.2,0,0,0,655.68,138.19Zm466.13-65a7.2,7.2,0,1,0,7.2,7.2A7.21,7.21,0,0,0,1121.81,73.17Zm1.08,309.93a7.2,7.2,0,1,0,7.2,7.2A7.2,7.2,0,0,0,1122.89,383.1Zm-25.28-270.36a7.2,7.2,0,1,0,7.2,7.2A7.2,7.2,0,0,0,1097.61,112.74Zm60.36,134a7.2,7.2,0,1,0,7.2,7.2A7.2,7.2,0,0,0,1158,246.72ZM973.56,368.14a7.2,7.2,0,1,0,7.2,7.2A7.2,7.2,0,0,0,973.56,368.14ZM1306,111.55a7.2,7.2,0,1,0,7.2,7.19A7.19,7.19,0,0,0,1306,111.55Zm6.47-32.46a7.2,7.2,0,1,0,7.2,7.2A7.2,7.2,0,0,0,1312.45,79.09ZM631.5,251.64a7.2,7.2,0,1,0,7.2,7.2A7.21,7.21,0,0,0,631.5,251.64ZM943.24,136.56a7.2,7.2,0,1,0,7.2,7.2A7.2,7.2,0,0,0,943.24,136.56Zm-1.77-65.63a7.2,7.2,0,1,0,7.2,7.2A7.2,7.2,0,0,0,941.47,70.93Zm361,248.23a7.2,7.2,0,1,0,7.2,7.2A7.2,7.2,0,0,0,1302.44,319.16Zm23.62,215.2a7.2,7.2,0,1,0,7.2,7.2A7.2,7.2,0,0,0,1326.06,534.36ZM1264.52,359a7.2,7.2,0,1,0,7.2,7.2A7.2,7.2,0,0,0,1264.52,359ZM1186.31,95.86a7.21,7.21,0,1,0,7.2,7.21A7.2,7.2,0,0,0,1186.31,95.86ZM1044.1,70.3a7.2,7.2,0,1,0,7.2,7.2A7.2,7.2,0,0,0,1044.1,70.3ZM711.61,204.06a7.2,7.2,0,1,0,7.2,7.2A7.2,7.2,0,0,0,711.61,204.06Zm294.3,83.25a7.2,7.2,0,1,0,7.2,7.2A7.2,7.2,0,0,0,1005.91,287.31Zm-68,46.35a7.2,7.2,0,1,0,7.2,7.2A7.2,7.2,0,0,0,937.92,333.66Zm94.41-191.92a7.2,7.2,0,1,0,7.2,7.2A7.21,7.21,0,0,0,1032.33,141.74Zm57.14,231a7.2,7.2,0,1,0,7.2,7.2A7.2,7.2,0,0,0,1089.47,372.74Zm35.76-222a7.2,7.2,0,1,0,7.2,7.2A7.2,7.2,0,0,0,1125.23,150.72ZM1076,47.84a7.2,7.2,0,1,0,7.2,7.2A7.2,7.2,0,0,0,1076,47.84Zm-172.66,27a7.2,7.2,0,1,0,7.2,7.2A7.2,7.2,0,0,0,903.34,74.83ZM1424.25,544.2a7.2,7.2,0,1,0,7.2,7.2A7.2,7.2,0,0,0,1424.25,544.2Zm-281-401.29a7.2,7.2,0,1,0,7.2,7.2A7.2,7.2,0,0,0,1143.22,142.91Zm-45,193.77a7.2,7.2,0,1,0,7.2,7.2A7.2,7.2,0,0,0,1098.23,336.68ZM896.47,254.51a7.2,7.2,0,1,0,7.2,7.2A7.2,7.2,0,0,0,896.47,254.51Zm361-108.21a7.2,7.2,0,1,0,7.2,7.2A7.2,7.2,0,0,0,1257.51,146.3Zm-14.29-79.69a7.2,7.2,0,1,0,7.2,7.2A7.2,7.2,0,0,0,1243.22,66.61ZM920.73,348.93a7.2,7.2,0,1,0,7.2,7.2A7.2,7.2,0,0,0,920.73,348.93Zm71-242.56a7.2,7.2,0,1,0,7.2,7.2A7.2,7.2,0,0,0,991.77,106.37Zm37.44,90.82a7.2,7.2,0,1,0,7.2,7.2A7.21,7.21,0,0,0,1029.21,197.19Zm252.9,312a7.2,7.2,0,1,0,7.2,7.2A7.2,7.2,0,0,0,1282.11,509.17ZM1146.34,124.92a7.2,7.2,0,1,0,7.2,7.2A7.21,7.21,0,0,0,1146.34,124.92ZM1203.59,377a7.2,7.2,0,1,0,7.2,7.2A7.21,7.21,0,0,0,1203.59,377ZM793.1,160.52a7.2,7.2,0,1,0,7.2,7.2A7.2,7.2,0,0,0,793.1,160.52ZM1273.59,557a7.2,7.2,0,1,0,7.2,7.2A7.21,7.21,0,0,0,1273.59,557Zm-92.66-259.23a7.2,7.2,0,1,0,7.2,7.2A7.21,7.21,0,0,0,1180.93,297.79ZM894.08,285.14a7.2,7.2,0,1,0,7.2,7.2A7.2,7.2,0,0,0,894.08,285.14ZM850.93,113.91a7.2,7.2,0,1,0,7.2,7.2A7.21,7.21,0,0,0,850.93,113.91Zm456.46,91.65a7.2,7.2,0,1,0,7.2,7.2A7.2,7.2,0,0,0,1307.39,205.56Zm-126.22,65.16a7.2,7.2,0,1,0,7.2,7.2A7.21,7.21,0,0,0,1181.17,270.72Zm-106.55,39.21a7.2,7.2,0,1,0,7.2,7.2A7.2,7.2,0,0,0,1074.62,309.93Zm48-26.61a7.2,7.2,0,1,0,7.2,7.2A7.21,7.21,0,0,0,1122.61,283.32Zm-31.89-4.58a7.2,7.2,0,1,0,7.2,7.2A7.2,7.2,0,0,0,1090.72,278.74ZM1056.53,51.4a7.2,7.2,0,1,0,7.2,7.2A7.2,7.2,0,0,0,1056.53,51.4Zm181.88,285.78a7.2,7.2,0,1,0,7.2,7.2A7.21,7.21,0,0,0,1238.41,337.18ZM735.22,162.74a7.2,7.2,0,1,0,7.2,7.2A7.2,7.2,0,0,0,735.22,162.74Zm571.32-67.29a7.2,7.2,0,1,0,7.2,7.2A7.2,7.2,0,0,0,1306.54,95.45Zm-216.17,71.48a7.2,7.2,0,1,0,7.2,7.2A7.2,7.2,0,0,0,1090.37,166.93ZM887.75,268.71a7.2,7.2,0,1,0,7.2,7.2A7.21,7.21,0,0,0,887.75,268.71ZM912.35,90a7.2,7.2,0,1,0,7.2,7.2A7.2,7.2,0,0,0,912.35,90ZM1258.7,340.59a7.2,7.2,0,1,0,7.2,7.2A7.2,7.2,0,0,0,1258.7,340.59Zm-153.76,14.73a7.2,7.2,0,1,0,7.2,7.2A7.2,7.2,0,0,0,1104.94,355.32Zm150-244.55a7.2,7.2,0,1,0,7.2,7.2A7.2,7.2,0,0,0,1255,110.77Zm-57,219.39a7.2,7.2,0,1,0,7.2,7.2A7.2,7.2,0,0,0,1198,330.16Zm148.88,117.08a7.2,7.2,0,1,0,7.2,7.2A7.2,7.2,0,0,0,1346.85,447.24Zm-160.67-74.42a7.2,7.2,0,1,0,7.2,7.2A7.21,7.21,0,0,0,1186.18,372.82ZM1056,260.78a7.2,7.2,0,1,0,7.2,7.2A7.2,7.2,0,0,0,1056,260.78ZM778.43,175.93a7.2,7.2,0,1,0,7.2,7.2A7.2,7.2,0,0,0,778.43,175.93Zm412.63,1.17a7.2,7.2,0,1,0,7.2,7.2A7.2,7.2,0,0,0,1191.06,177.1Zm-114.23-22.48a7.2,7.2,0,1,0,7.2,7.2A7.2,7.2,0,0,0,1076.83,154.62Zm51.08-21.5a7.2,7.2,0,1,0,7.2,7.2A7.21,7.21,0,0,0,1127.91,133.12ZM1026.17,282.31a7.2,7.2,0,1,0,7.2,7.2A7.2,7.2,0,0,0,1026.17,282.31Zm250-188.06a7.2,7.2,0,1,0,7.2,7.2A7.2,7.2,0,0,0,1276.14,94.25Zm48,13.28a7.2,7.2,0,1,0,7.2,7.2A7.2,7.2,0,0,0,1324.12,107.53Zm-516.4,37.82a7.2,7.2,0,1,0,7.2,7.2A7.2,7.2,0,0,0,807.72,145.35Zm451.85-70.3a7.2,7.2,0,1,0,7.2,7.2A7.2,7.2,0,0,0,1259.57,75.05ZM802.46,64.33a7.2,7.2,0,1,0,7.2,7.2A7.2,7.2,0,0,0,802.46,64.33Zm222.7-18.9a7.2,7.2,0,1,0,7.2,7.2A7.21,7.21,0,0,0,1025.16,45.43Zm181.49,300.63a7.2,7.2,0,1,0,7.2,7.2A7.2,7.2,0,0,0,1206.65,346.06Zm184.54-239.8a7.2,7.2,0,1,0,7.2,7.2A7.2,7.2,0,0,0,1391.19,106.26ZM1080,232.57a7.2,7.2,0,1,0,7.2,7.2A7.2,7.2,0,0,0,1080,232.57Zm45.66-8a7.2,7.2,0,1,0,7.2,7.2A7.2,7.2,0,0,0,1125.65,224.52Zm-105,20.77a7.2,7.2,0,1,0,7.2,7.2A7.2,7.2,0,0,0,1020.7,245.29Zm-108.54,6.49a7.2,7.2,0,1,0,7.2,7.2A7.21,7.21,0,0,0,912.16,251.78ZM985.92,233a7.2,7.2,0,1,0,7.2,7.2A7.2,7.2,0,0,0,985.92,233Zm248.2,186.4a7.2,7.2,0,1,0,7.2,7.2A7.2,7.2,0,0,0,1234.12,419.36ZM1082.45,100a7.2,7.2,0,1,0,7.2,7.2A7.2,7.2,0,0,0,1082.45,100ZM769.28,213.83a7.2,7.2,0,1,0,7.2,7.2A7.2,7.2,0,0,0,769.28,213.83Zm190.21,144a7.2,7.2,0,1,0,7.2,7.2A7.2,7.2,0,0,0,959.49,357.79Zm267.79-142.22a7.2,7.2,0,1,0,7.2,7.2A7.2,7.2,0,0,0,1227.28,215.57ZM1297,234.25a7.2,7.2,0,1,0,7.2,7.2A7.2,7.2,0,0,0,1297,234.25ZM1079.13,117.06a7.2,7.2,0,1,0,7.2,7.2A7.21,7.21,0,0,0,1079.13,117.06ZM926.38,411.48a7.2,7.2,0,1,0,7.2,7.2A7.2,7.2,0,0,0,926.38,411.48Zm-176.71-296a7.2,7.2,0,1,0,7.2,7.2A7.2,7.2,0,0,0,749.67,115.52Zm339.38,182.93a7.2,7.2,0,1,0,7.2,7.2A7.2,7.2,0,0,0,1089.05,298.45ZM1121,47a7.2,7.2,0,1,0,7.2,7.2A7.2,7.2,0,0,0,1121,47ZM924.48,365.82a7.2,7.2,0,1,0,7.2,7.2A7.2,7.2,0,0,0,924.48,365.82Zm301.4,37.63a7.2,7.2,0,1,0,7.2,7.2A7.2,7.2,0,0,0,1225.88,403.45ZM924.19,395.5a7.2,7.2,0,1,0,7.2,7.2A7.2,7.2,0,0,0,924.19,395.5Zm314-91.5a7.2,7.2,0,1,0,7.2,7.2A7.21,7.21,0,0,0,1238.19,304Zm-18.85-2.88a7.2,7.2,0,1,0,7.2,7.2A7.2,7.2,0,0,0,1219.34,301.12Zm-108.49,95.45a7.2,7.2,0,1,0,7.2,7.2A7.2,7.2,0,0,0,1110.85,396.57Zm-39.93-42.75a7.2,7.2,0,1,0,7.2,7.2A7.2,7.2,0,0,0,1070.92,353.82Zm113.14-239.55a7.2,7.2,0,1,0,7.2,7.2A7.21,7.21,0,0,0,1184.06,114.27ZM1046.89,221.36a7.2,7.2,0,1,0,7.2,7.2A7.2,7.2,0,0,0,1046.89,221.36ZM670,191.74a7.2,7.2,0,1,0,7.2,7.2A7.2,7.2,0,0,0,670,191.74Zm508.14,167.42a7.2,7.2,0,1,0,7.2,7.2A7.2,7.2,0,0,0,1178.14,359.16Zm137.7-138.62a7.2,7.2,0,1,0,7.2,7.2A7.2,7.2,0,0,0,1315.84,220.54ZM904.37,366.39a7.2,7.2,0,1,0,7.2,7.2A7.2,7.2,0,0,0,904.37,366.39ZM843.81,241.71a7.2,7.2,0,1,0,7.2,7.2A7.21,7.21,0,0,0,843.81,241.71Zm43,94.53a7.2,7.2,0,1,0,7.2,7.2A7.2,7.2,0,0,0,886.83,336.24ZM817.69,126.32a7.2,7.2,0,1,0,7.2,7.2A7.2,7.2,0,0,0,817.69,126.32Zm-127.32,69a7.2,7.2,0,1,0,7.2,7.2A7.21,7.21,0,0,0,690.37,195.27ZM1270.82,59.65a7.2,7.2,0,1,0,7.2,7.2A7.21,7.21,0,0,0,1270.82,59.65ZM1270,205a7.2,7.2,0,1,0,7.2,7.2A7.2,7.2,0,0,0,1270,205ZM926.54,245.52a7.2,7.2,0,1,0,7.2,7.2A7.2,7.2,0,0,0,926.54,245.52Zm472.73-96.8a7.2,7.2,0,1,0,7.2,7.19A7.2,7.2,0,0,0,1399.27,148.72ZM724.09,177.27a7.2,7.2,0,1,0,7.2,7.2A7.2,7.2,0,0,0,724.09,177.27Zm54.18-20.8a7.2,7.2,0,1,0,7.2,7.2A7.2,7.2,0,0,0,778.27,156.47ZM1117.1,366.39a7.2,7.2,0,1,0,7.2,7.2A7.2,7.2,0,0,0,1117.1,366.39Zm151.29-77.86a7.2,7.2,0,1,0,7.2,7.2A7.21,7.21,0,0,0,1268.39,288.53Zm-284-92.75a7.2,7.2,0,1,0,7.2,7.2A7.2,7.2,0,0,0,984.38,195.78Zm341.51-29.84a7.2,7.2,0,1,0,7.2,7.2A7.2,7.2,0,0,0,1325.89,165.94Zm-653.17,59.6a7.2,7.2,0,1,0,7.2,7.2A7.21,7.21,0,0,0,672.72,225.54Zm539.07,57.6a7.2,7.2,0,1,0,7.2,7.2A7.2,7.2,0,0,0,1211.79,283.14ZM946.16,295.07a7.2,7.2,0,1,0,7.2,7.2A7.2,7.2,0,0,0,946.16,295.07ZM1140.57,78.31a7.2,7.2,0,1,0,7.2,7.2A7.2,7.2,0,0,0,1140.57,78.31Zm86.83,399.75a7.2,7.2,0,1,0,7.2,7.2A7.2,7.2,0,0,0,1227.4,478.06ZM873.83,85.46a7.2,7.2,0,1,0,7.2,7.2A7.2,7.2,0,0,0,873.83,85.46Zm207.48,165.79a7.2,7.2,0,1,0,7.2,7.2A7.2,7.2,0,0,0,1081.31,251.25Zm-61.82-138.78a7.2,7.2,0,1,0,7.2,7.2A7.2,7.2,0,0,0,1019.49,112.47ZM696.09,211a7.2,7.2,0,1,0,7.2,7.2A7.2,7.2,0,0,0,696.09,211Zm206.63-58.29a7.2,7.2,0,1,0,7.2,7.2A7.2,7.2,0,0,0,902.72,152.75ZM966,292.53a7.2,7.2,0,1,0,7.2,7.2A7.2,7.2,0,0,0,966,292.53Zm50.55-143a7.2,7.2,0,1,0,7.2,7.2A7.2,7.2,0,0,0,1016.5,149.54Zm213.2,84.68a7.2,7.2,0,1,0,7.2,7.2A7.2,7.2,0,0,0,1229.7,234.22ZM1045.87,152a7.2,7.2,0,1,0,7.2,7.2A7.2,7.2,0,0,0,1045.87,152ZM1140,273.29a7.2,7.2,0,1,0,7.2,7.2A7.2,7.2,0,0,0,1140,273.29Zm-109.17-58.63a7.2,7.2,0,1,0,7.2,7.2A7.2,7.2,0,0,0,1030.83,214.66ZM771.92,195.8a7.2,7.2,0,1,0,7.2,7.2A7.2,7.2,0,0,0,771.92,195.8Zm322.53-65.94a7.2,7.2,0,1,0,7.2,7.2A7.2,7.2,0,0,0,1094.45,129.86ZM968.57,225.33a7.2,7.2,0,1,0,7.2,7.2A7.2,7.2,0,0,0,968.57,225.33Zm-180.72,23a7.2,7.2,0,1,0,7.2,7.2A7.2,7.2,0,0,0,787.85,248.31ZM1327,68.74a7.21,7.21,0,1,0,7.2,7.21A7.2,7.2,0,0,0,1327,68.74Zm-46.32,202.31a7.2,7.2,0,1,0,7.2,7.2A7.2,7.2,0,0,0,1280.66,271.05ZM922,157.49a7.2,7.2,0,1,0,7.2,7.2A7.2,7.2,0,0,0,922,157.49Zm46.51,14.32a7.2,7.2,0,1,0,7.2,7.2A7.2,7.2,0,0,0,968.55,171.81Zm33,48.75a7.2,7.2,0,1,0,7.2,7.2A7.2,7.2,0,0,0,1001.56,220.56Zm256.27-54.46a7.2,7.2,0,1,0,7.2,7.2A7.2,7.2,0,0,0,1257.83,166.1Zm-5.22,37.27a7.2,7.2,0,1,0,7.2,7.2A7.2,7.2,0,0,0,1252.61,203.37Zm-430.55-96.7a7.2,7.2,0,1,0,7.2,7.2A7.2,7.2,0,0,0,822.06,106.67Zm377.73,105.69a7.2,7.2,0,1,0,7.2,7.2A7.2,7.2,0,0,0,1199.79,212.36ZM1112.62,123a7.2,7.2,0,1,0,7.2,7.2A7.2,7.2,0,0,0,1112.62,123Zm-3.53-64.31a7.2,7.2,0,1,0,7.2,7.2A7.2,7.2,0,0,0,1109.09,58.7ZM957.36,377.41a7.2,7.2,0,1,0,7.2,7.2A7.21,7.21,0,0,0,957.36,377.41Zm272.33-245.64a7.2,7.2,0,1,0,7.2,7.2A7.2,7.2,0,0,0,1229.69,131.77ZM915.88,381.19a7.2,7.2,0,1,0,7.2,7.2A7.2,7.2,0,0,0,915.88,381.19ZM1289.5,62.39a7.2,7.2,0,1,0,7.2,7.2A7.2,7.2,0,0,0,1289.5,62.39Zm-21.16,197.26a7.2,7.2,0,1,0,7.2,7.2A7.21,7.21,0,0,0,1268.34,259.65ZM841.3,71.31a7.2,7.2,0,1,0,7.2,7.2A7.2,7.2,0,0,0,841.3,71.31Zm202.13-34.68a7.2,7.2,0,1,0,7.2,7.2A7.21,7.21,0,0,0,1043.43,36.63Zm96.8,124.19a7.2,7.2,0,1,0,7.2,7.2A7.2,7.2,0,0,0,1140.23,160.82ZM789.77,213.06a7.2,7.2,0,1,0,7.2,7.2A7.2,7.2,0,0,0,789.77,213.06Zm252,80.39a7.2,7.2,0,1,0,7.2,7.2A7.2,7.2,0,0,0,1041.8,293.45ZM993.89,88.76a7.2,7.2,0,1,0,7.2,7.2A7.2,7.2,0,0,0,993.89,88.76Zm-5,162.37a7.2,7.2,0,1,0,7.2,7.2A7.2,7.2,0,0,0,988.91,251.13ZM1259.82,186a7.2,7.2,0,1,0,7.2,7.2A7.2,7.2,0,0,0,1259.82,186Zm-332,114.81a7.2,7.2,0,1,0,7.2,7.2A7.2,7.2,0,0,0,927.85,300.81ZM1099.5,31.05a7.2,7.2,0,1,0,7.2,7.2A7.2,7.2,0,0,0,1099.5,31.05ZM1268,239.53a7.2,7.2,0,1,0,7.2,7.2A7.2,7.2,0,0,0,1268,239.53Zm-112.89-69.74a7.2,7.2,0,1,0,7.2,7.2A7.2,7.2,0,0,0,1155.13,169.79Zm-257,30.06a7.2,7.2,0,1,0,7.2,7.2A7.2,7.2,0,0,0,898.15,199.85Zm76.06,60.54a7.2,7.2,0,1,0,7.2,7.2A7.2,7.2,0,0,0,974.21,260.39ZM1239.37,99.18a7.2,7.2,0,1,0,7.2,7.2A7.21,7.21,0,0,0,1239.37,99.18Zm-71.66,21.38a7.2,7.2,0,1,0,7.2,7.2A7.2,7.2,0,0,0,1167.71,120.56Zm211.64,142.91a7.2,7.2,0,1,0,7.2,7.2A7.2,7.2,0,0,0,1379.35,263.47Zm-358.36,35a7.2,7.2,0,1,0,7.2,7.2A7.21,7.21,0,0,0,1021,298.47ZM1204.57,91.35a7.2,7.2,0,1,0,7.2,7.2A7.21,7.21,0,0,0,1204.57,91.35Zm43,230.69a7.2,7.2,0,1,0,7.2,7.2A7.2,7.2,0,0,0,1247.54,322Zm-260.2-33.76a7.2,7.2,0,1,0,7.2,7.2A7.2,7.2,0,0,0,987.34,288.28ZM955.2,161.78a7.2,7.2,0,1,0,7.2,7.2A7.2,7.2,0,0,0,955.2,161.78ZM1173,329.58a7.2,7.2,0,1,0,7.2,7.2A7.2,7.2,0,0,0,1173,329.58ZM958.31,71.27a7.2,7.2,0,1,0,7.2,7.2A7.21,7.21,0,0,0,958.31,71.27Zm89.91,37.42a7.2,7.2,0,1,0,7.2,7.2A7.2,7.2,0,0,0,1048.22,108.69ZM894.4,319a7.2,7.2,0,1,0,7.2,7.2A7.2,7.2,0,0,0,894.4,319Zm399.47-144.54a7.2,7.2,0,1,0,7.2,7.2A7.2,7.2,0,0,0,1293.87,174.48ZM1222.06,267a7.2,7.2,0,1,0,7.2,7.2A7.2,7.2,0,0,0,1222.06,267Zm-10.18-39.69a7.2,7.2,0,1,0,7.2,7.2A7.2,7.2,0,0,0,1211.88,227.29Zm-265.29-138a7.2,7.2,0,1,0,7.2,7.2A7.2,7.2,0,0,0,946.59,89.31ZM839.93,100.85a7.2,7.2,0,1,0,7.2,7.2A7.2,7.2,0,0,0,839.93,100.85Zm-119.45,4.32a7.2,7.2,0,1,0,7.2,7.2A7.2,7.2,0,0,0,720.48,105.17Zm-55.76,56.68a7.2,7.2,0,1,0,7.2,7.2A7.21,7.21,0,0,0,664.72,161.85Zm386,78.67a7.2,7.2,0,1,0,7.2,7.2A7.2,7.2,0,0,0,1050.68,240.52Zm59.58-26.81a7.2,7.2,0,1,0,7.2,7.2A7.2,7.2,0,0,0,1110.26,213.71ZM975,276.68a7.2,7.2,0,1,0,7.2,7.2A7.2,7.2,0,0,0,975,276.68ZM1366.91,94.05a7.2,7.2,0,1,0,7.2,7.2A7.2,7.2,0,0,0,1366.91,94.05ZM942.71,402.54a7.2,7.2,0,1,0,7.2,7.2A7.2,7.2,0,0,0,942.71,402.54Zm161.93,12.38a7.2,7.2,0,1,0,7.2,7.2A7.21,7.21,0,0,0,1104.64,414.92ZM952.21,179.46a7.2,7.2,0,1,0,7.2,7.2A7.2,7.2,0,0,0,952.21,179.46Zm192.84,18.22a7.2,7.2,0,1,0,7.2,7.2A7.2,7.2,0,0,0,1145.05,197.68ZM733.62,95.85a7.2,7.2,0,1,0,7.2,7.2A7.21,7.21,0,0,0,733.62,95.85Zm507.67,46.76a7.2,7.2,0,1,0,7.2,7.2A7.2,7.2,0,0,0,1241.29,142.61Zm-99.66-93.85a7.2,7.2,0,1,0,7.2,7.2A7.2,7.2,0,0,0,1141.63,48.76ZM1307,161.56a7.2,7.2,0,1,0,7.2,7.2A7.2,7.2,0,0,0,1307,161.56Zm-313,6.26a7.2,7.2,0,1,0,7.2,7.2A7.2,7.2,0,0,0,994.08,167.82Zm112.08,121.91a7.2,7.2,0,1,0,7.2,7.2A7.2,7.2,0,0,0,1106.16,289.73Zm-180-25.2a7.2,7.2,0,1,0,7.2,7.2A7.2,7.2,0,0,0,926.21,264.53ZM743,129.82a7.2,7.2,0,1,0,7.2,7.2A7.2,7.2,0,0,0,743,129.82Zm17.94,51a7.2,7.2,0,1,0,7.2,7.2A7.2,7.2,0,0,0,760.93,180.84Zm110.56,79.94a7.2,7.2,0,1,0,7.2,7.2A7.2,7.2,0,0,0,871.49,260.78ZM1208,158.85a7.2,7.2,0,1,0,7.2,7.2A7.2,7.2,0,0,0,1208,158.85ZM709.09,187.43a7.2,7.2,0,1,0,7.2,7.2A7.2,7.2,0,0,0,709.09,187.43Zm.75-73.8a7.2,7.2,0,1,0,7.2,7.2A7.2,7.2,0,0,0,709.84,113.63Zm614.43-22.5a7.2,7.2,0,1,0,7.2,7.2A7.2,7.2,0,0,0,1324.27,91.13ZM1195,144.32a7.2,7.2,0,1,0,7.2,7.2A7.2,7.2,0,0,0,1195,144.32ZM1245.77,406a7.2,7.2,0,1,0,7.2,7.2A7.2,7.2,0,0,0,1245.77,406ZM1140.64,179.85a7.2,7.2,0,1,0,7.2,7.2A7.2,7.2,0,0,0,1140.64,179.85Zm212-89.45a7.2,7.2,0,1,0,7.2,7.2A7.2,7.2,0,0,0,1352.65,90.4ZM1044,90.25a7.2,7.2,0,1,0,7.2,7.2A7.2,7.2,0,0,0,1044,90.25Zm-74.88,98.6a7.2,7.2,0,1,0,7.2,7.2A7.21,7.21,0,0,0,969.11,188.85Zm33.15-3a7.2,7.2,0,1,0,7.2,7.2A7.2,7.2,0,0,0,1002.26,185.82Zm333.23.52a7.2,7.2,0,1,0,7.2,7.2A7.2,7.2,0,0,0,1335.49,186.34Zm-261.43,8.45a7.2,7.2,0,1,0,7.2,7.2A7.21,7.21,0,0,0,1074.06,194.79Zm91.64,7.43a7.2,7.2,0,1,0,7.2,7.2A7.2,7.2,0,0,0,1165.7,202.22ZM1012,167.59a7.2,7.2,0,1,0,7.2,7.2A7.2,7.2,0,0,0,1012,167.59Zm-74.78,1.77a7.2,7.2,0,1,0,7.2,7.2A7.2,7.2,0,0,0,937.21,169.36Zm-45.58-.06a7.2,7.2,0,1,0,7.2,7.2A7.2,7.2,0,0,0,891.63,169.3ZM1022.51,63.48a7.2,7.2,0,1,0,7.2,7.2A7.2,7.2,0,0,0,1022.51,63.48ZM1240.9,270.56a7.2,7.2,0,1,0,7.2,7.2A7.2,7.2,0,0,0,1240.9,270.56ZM808.43,164.3a7.2,7.2,0,1,0,7.2,7.2A7.2,7.2,0,0,0,808.43,164.3Zm60-54.65a7.2,7.2,0,1,0,7.2,7.2A7.2,7.2,0,0,0,868.42,109.65Zm520.29,22.89a7.2,7.2,0,1,0,7.2,7.2A7.2,7.2,0,0,0,1388.71,132.54Zm-278.8,8.17a7.2,7.2,0,1,0,7.2,7.2A7.2,7.2,0,0,0,1109.91,140.71Zm175.93,179a7.2,7.2,0,1,0,7.2,7.2A7.2,7.2,0,0,0,1285.84,319.75ZM817.24,178.91a7.2,7.2,0,1,0,7.2,7.2A7.2,7.2,0,0,0,817.24,178.91Zm464.34,170a7.2,7.2,0,1,0,7.2,7.2A7.2,7.2,0,0,0,1281.58,348.88Zm-306-28.32a7.2,7.2,0,1,0,7.2,7.2A7.2,7.2,0,0,0,975.54,320.56Zm34.77-243.69a7.2,7.2,0,1,0,7.2,7.2A7.2,7.2,0,0,0,1010.31,76.87ZM1038,182.65a7.2,7.2,0,1,0,7.2,7.2A7.2,7.2,0,0,0,1038,182.65Zm282.83,13.95a7.2,7.2,0,1,0,7.2,7.2A7.2,7.2,0,0,0,1320.78,196.6Zm-122.22-70.3a7.2,7.2,0,1,0,7.2,7.2A7.2,7.2,0,0,0,1198.56,126.3Zm-73.46,60.43a7.2,7.2,0,1,0,7.2,7.2A7.2,7.2,0,0,0,1125.1,186.73Zm76.41-78.32a7.2,7.2,0,1,0,7.2,7.2A7.2,7.2,0,0,0,1201.51,108.41ZM823,156.92a7.2,7.2,0,1,0,7.2,7.2A7.2,7.2,0,0,0,823,156.92Zm263-92.56a7.2,7.2,0,1,0,7.2,7.2A7.2,7.2,0,0,0,1086,64.36Zm22.79,206.94a7.2,7.2,0,1,0,7.2,7.2A7.2,7.2,0,0,0,1108.77,271.3Zm123.9-218.45a7.2,7.2,0,1,0,7.2,7.2A7.2,7.2,0,0,0,1232.67,52.85Zm-77.28,162.5a7.2,7.2,0,1,0,7.2,7.2A7.2,7.2,0,0,0,1155.39,215.35Zm-465.23-35.8a7.2,7.2,0,1,0,7.2,7.2A7.2,7.2,0,0,0,690.16,179.55ZM1252.42,255a7.2,7.2,0,1,0,7.2,7.2A7.2,7.2,0,0,0,1252.42,255Zm-225.18-173a7.2,7.2,0,1,0,7.2,7.2A7.2,7.2,0,0,0,1027.24,82.05Zm-65,6.63a7.2,7.2,0,1,0,7.2,7.2A7.2,7.2,0,0,0,962.26,88.68Zm286.43,199.87a7.2,7.2,0,1,0,7.2,7.2A7.21,7.21,0,0,0,1248.69,288.55Zm-310.28,94.8a7.2,7.2,0,1,0,7.2,7.2A7.2,7.2,0,0,0,938.41,383.35Zm389.47-117.51a7.2,7.2,0,1,0,7.2,7.2A7.2,7.2,0,0,0,1327.88,265.84Zm-143.28-62a7.2,7.2,0,1,0,7.2,7.2A7.2,7.2,0,0,0,1184.6,203.84ZM1220,382.78a7.2,7.2,0,1,0,7.2,7.2A7.2,7.2,0,0,0,1220,382.78Zm56.33-78a7.21,7.21,0,1,0,7.2,7.2A7.2,7.2,0,0,0,1276.33,304.78ZM1095.57,47.37a7.2,7.2,0,1,0,7.2,7.2A7.2,7.2,0,0,0,1095.57,47.37ZM827.33,140.05a7.2,7.2,0,1,0,7.2,7.2A7.2,7.2,0,0,0,827.33,140.05ZM942.69,348.33a7.2,7.2,0,1,0,7.2,7.2A7.2,7.2,0,0,0,942.69,348.33Zm15.45-242.66a7.2,7.2,0,1,0,7.2,7.2A7.2,7.2,0,0,0,958.14,105.67Zm183.05-2.51a7.2,7.2,0,1,0,7.2,7.2A7.21,7.21,0,0,0,1141.19,103.16ZM983.87,178.57a7.2,7.2,0,1,0,7.2,7.2A7.2,7.2,0,0,0,983.87,178.57ZM1173.5,66.16a7.2,7.2,0,1,0,7.2,7.2A7.2,7.2,0,0,0,1173.5,66.16ZM920.82,331.1a7.2,7.2,0,1,0,7.2,7.2A7.2,7.2,0,0,0,920.82,331.1Zm366.65-126.16a7.2,7.2,0,1,0,7.2,7.2A7.2,7.2,0,0,0,1287.47,204.94ZM1232.35,369.2a7.2,7.2,0,1,0,7.2,7.2A7.2,7.2,0,0,0,1232.35,369.2Zm-279.42-153a7.2,7.2,0,1,0,7.2,7.2A7.2,7.2,0,0,0,952.93,216.21ZM1175.52,150a7.2,7.2,0,1,0,7.2,7.2A7.2,7.2,0,0,0,1175.52,150ZM942.07,365.42a7.2,7.2,0,1,0,7.2,7.2A7.2,7.2,0,0,0,942.07,365.42Zm185.46-13.14a7.2,7.2,0,1,0,7.2,7.2A7.2,7.2,0,0,0,1127.53,352.28ZM908.25,271.2a7.2,7.2,0,1,0,7.2,7.2A7.2,7.2,0,0,0,908.25,271.2ZM865.41,188a7.2,7.2,0,1,0,7.2,7.2A7.2,7.2,0,0,0,865.41,188Zm533.84-98a7.2,7.2,0,1,0,7.2,7.19A7.19,7.19,0,0,0,1399.25,90Zm-191.14,87.05a7.2,7.2,0,1,0,7.2,7.2A7.2,7.2,0,0,0,1208.11,177.06Zm187.47-104.3a7.2,7.2,0,1,0,7.2,7.2A7.2,7.2,0,0,0,1395.58,72.76ZM861.27,159.67a7.2,7.2,0,1,0,7.2,7.2A7.2,7.2,0,0,0,861.27,159.67Zm-56.73,34.74a7.2,7.2,0,1,0,7.2,7.2A7.2,7.2,0,0,0,804.54,194.41Zm118-120.53a7.2,7.2,0,1,0,7.2,7.2A7.2,7.2,0,0,0,922.51,73.88Zm36.94,71.85a7.2,7.2,0,1,0,7.2,7.2A7.21,7.21,0,0,0,959.45,145.73Zm383.43-38.82a7.2,7.2,0,1,0,7.2,7.2A7.2,7.2,0,0,0,1342.88,106.91ZM993.15,319.16a7.2,7.2,0,1,0,7.2,7.2A7.2,7.2,0,0,0,993.15,319.16Zm195.34-64.26a7.2,7.2,0,1,0,7.2,7.2A7.2,7.2,0,0,0,1188.49,254.9Zm71,18.86a7.2,7.2,0,1,0,7.2,7.2A7.2,7.2,0,0,0,1259.48,273.76ZM841.7,154a7.2,7.2,0,1,0,7.2,7.2A7.2,7.2,0,0,0,841.7,154Zm219.08,53.76a7.2,7.2,0,1,0,7.2,7.2A7.21,7.21,0,0,0,1060.78,207.8Zm316.69,14.81a7.2,7.2,0,1,0,7.2,7.2A7.2,7.2,0,0,0,1377.47,222.61ZM862,243.48a7.2,7.2,0,1,0,7.2,7.2A7.2,7.2,0,0,0,862,243.48Zm91.91-119.95a7.2,7.2,0,1,0,7.2,7.2A7.2,7.2,0,0,0,953.87,123.53ZM656.36,234a7.2,7.2,0,1,0,7.2,7.2A7.2,7.2,0,0,0,656.36,234ZM1230,285.63a7.2,7.2,0,1,0,7.2,7.2A7.2,7.2,0,0,0,1230,285.63ZM962.15,309.51a7.2,7.2,0,1,0,7.2,7.2A7.2,7.2,0,0,0,962.15,309.51ZM804.45,99.42a7.2,7.2,0,1,0,7.2,7.2A7.2,7.2,0,0,0,804.45,99.42Zm112.06,96.89a7.2,7.2,0,1,0,7.2,7.2A7.2,7.2,0,0,0,916.51,196.31ZM1224.18,505a7.2,7.2,0,1,0,7.2,7.2A7.2,7.2,0,0,0,1224.18,505ZM1292,123.14a7.2,7.2,0,1,0,7.2,7.2A7.2,7.2,0,0,0,1292,123.14ZM1130.25,91.78a7.2,7.2,0,1,0,7.2,7.2A7.21,7.21,0,0,0,1130.25,91.78ZM1237,528a7.2,7.2,0,1,0,7.2,7.2A7.2,7.2,0,0,0,1237,528ZM981.92,353.57a7.2,7.2,0,1,0,7.2,7.2A7.2,7.2,0,0,0,981.92,353.57Zm317.79-163.15a7.2,7.2,0,1,0,7.2,7.2A7.2,7.2,0,0,0,1299.71,190.42ZM1080.45,29.32a7.2,7.2,0,1,0,7.2,7.2A7.2,7.2,0,0,0,1080.45,29.32Zm357.46,50.74a7.2,7.2,0,1,0,7.2,7.2A7.2,7.2,0,0,0,1437.91,80.06Zm-482.81,116a7.2,7.2,0,1,0,7.2,7.2A7.2,7.2,0,0,0,955.1,196.08Zm238.22,86.67a7.2,7.2,0,1,0,7.2,7.2A7.2,7.2,0,0,0,1193.32,282.75Zm-45.13,70.6a7.2,7.2,0,1,0,7.2,7.2A7.2,7.2,0,0,0,1148.19,353.35ZM981.84,66.19a7.2,7.2,0,1,0,7.2,7.2A7.2,7.2,0,0,0,981.84,66.19Zm173.5,43.75a7.2,7.2,0,1,0,7.2,7.2A7.2,7.2,0,0,0,1155.34,109.94Zm-135.51,73a7.2,7.2,0,1,0,7.2,7.2A7.21,7.21,0,0,0,1019.83,182.91Zm172.31,44.56a7.2,7.2,0,1,0,7.2,7.2A7.2,7.2,0,0,0,1192.14,227.47Zm-69.48,231.19a7.2,7.2,0,1,0,7.2,7.2A7.2,7.2,0,0,0,1122.66,458.66Zm164.5-170.36a7.2,7.2,0,1,0,7.2,7.19A7.2,7.2,0,0,0,1287.16,288.3Zm-116.82-4.48a7.2,7.2,0,1,0,7.2,7.2A7.2,7.2,0,0,0,1170.34,283.82ZM976.57,156.91a7.2,7.2,0,1,0,7.2,7.2A7.2,7.2,0,0,0,976.57,156.91ZM1094,261.46a7.2,7.2,0,1,0,7.2,7.2A7.2,7.2,0,0,0,1094,261.46ZM868.62,302a7.2,7.2,0,1,0,7.2,7.2A7.21,7.21,0,0,0,868.62,302ZM1216.2,120.31a7.2,7.2,0,1,0,7.2,7.2A7.2,7.2,0,0,0,1216.2,120.31ZM1275,170.46a7.2,7.2,0,1,0,7.2,7.2A7.2,7.2,0,0,0,1275,170.46ZM788.13,195.27a7.2,7.2,0,1,0,7.2,7.2A7.2,7.2,0,0,0,788.13,195.27Zm323.75,126.89a7.2,7.2,0,1,0,7.2,7.2A7.2,7.2,0,0,0,1111.88,322.16Zm129.59-161.64a7.2,7.2,0,1,0,7.2,7.2A7.2,7.2,0,0,0,1241.47,160.52Zm-145.76,81.09a7.2,7.2,0,1,0,7.2,7.2A7.2,7.2,0,0,0,1095.71,241.61Zm-224-99.38a7.2,7.2,0,1,0,7.2,7.2A7.2,7.2,0,0,0,871.75,142.23Zm28.5,93.58a7.2,7.2,0,1,0,7.2,7.2A7.21,7.21,0,0,0,900.25,235.81Zm397.81,102.63a7.2,7.2,0,1,0,7.2,7.2A7.2,7.2,0,0,0,1298.06,338.44Zm-284.31-23.81a7.2,7.2,0,1,0,7.2,7.2A7.2,7.2,0,0,0,1013.75,314.63ZM1325,402.25a7.2,7.2,0,1,0,7.2,7.2A7.2,7.2,0,0,0,1325,402.25Zm-419.82-68a7.2,7.2,0,1,0,7.2,7.2A7.2,7.2,0,0,0,905.13,334.27ZM734.65,113.73a7.2,7.2,0,1,0,7.2,7.2A7.2,7.2,0,0,0,734.65,113.73Zm427.48,116.76a7.2,7.2,0,1,0,7.2,7.2A7.2,7.2,0,0,0,1162.13,230.49Zm45.4-155.92a7.2,7.2,0,1,0,7.2,7.2A7.2,7.2,0,0,0,1207.53,74.57Zm-80.14,169.15a7.2,7.2,0,1,0,7.2,7.2A7.2,7.2,0,0,0,1127.39,243.72ZM958.94,394.91a7.2,7.2,0,1,0,7.2,7.2A7.2,7.2,0,0,0,958.94,394.91Zm241.25-151.56a7.2,7.2,0,1,0,7.2,7.2A7.2,7.2,0,0,0,1200.19,243.35ZM1107.44,434a7.2,7.2,0,1,0,7.2,7.2A7.2,7.2,0,0,0,1107.44,434ZM705.56,168.9a7.2,7.2,0,1,0,7.2,7.2A7.2,7.2,0,0,0,705.56,168.9ZM912.54,314a7.2,7.2,0,1,0,7.2,7.2A7.2,7.2,0,0,0,912.54,314Zm303.8-65.67a7.2,7.2,0,1,0,7.2,7.2A7.2,7.2,0,0,0,1216.34,248.36ZM834,119.45a7.2,7.2,0,1,0,7.2,7.2A7.2,7.2,0,0,0,834,119.45Zm9.44,13.7a7.2,7.2,0,1,0,7.2,7.2A7.2,7.2,0,0,0,843.4,133.15Zm46,6.52a7.2,7.2,0,1,0,7.2,7.2A7.21,7.21,0,0,0,889.38,139.67ZM875.54,319.35a7.2,7.2,0,1,0,7.2,7.2A7.2,7.2,0,0,0,875.54,319.35Zm502.7-249.86a7.2,7.2,0,1,0,7.2,7.2A7.2,7.2,0,0,0,1378.24,69.49ZM875.59,283.28a7.2,7.2,0,1,0,7.2,7.2A7.2,7.2,0,0,0,875.59,283.28Zm104.93,20.79a7.2,7.2,0,1,0,7.2,7.2A7.2,7.2,0,0,0,980.52,304.07Zm30.27-207.69a7.2,7.2,0,1,0,7.2,7.2A7.2,7.2,0,0,0,1010.79,96.38Zm161.93,72.86a7.2,7.2,0,1,0,7.2,7.2A7.2,7.2,0,0,0,1172.72,169.24Zm-80.39,34.31a7.2,7.2,0,1,0,7.2,7.2A7.21,7.21,0,0,0,1092.33,203.55Zm-151.7-95.83a7.2,7.2,0,1,0,7.2,7.2A7.2,7.2,0,0,0,940.63,107.72Zm252.62-46.16a7.2,7.2,0,1,0,7.2,7.2A7.21,7.21,0,0,0,1193.25,61.56ZM1245.06,355a7.2,7.2,0,1,0,7.2,7.2A7.21,7.21,0,0,0,1245.06,355Zm-610-123.13a7.2,7.2,0,1,0,7.2,7.2A7.2,7.2,0,0,0,635.08,231.89Zm-1.34-76.19a7.2,7.2,0,1,0,7.2,7.2A7.2,7.2,0,0,0,633.74,155.7ZM1048,131.87a7.2,7.2,0,1,0,7.2,7.2A7.2,7.2,0,0,0,1048,131.87Zm177.07,37.65a7.2,7.2,0,1,0,7.2,7.2A7.2,7.2,0,0,0,1225.11,169.52Zm68.64-87a7.2,7.2,0,1,0,7.2,7.2A7.21,7.21,0,0,0,1293.75,82.49Zm-50.21,137.07a7.2,7.2,0,1,0,7.2,7.2A7.2,7.2,0,0,0,1243.54,219.56Zm-73,93.43a7.2,7.2,0,1,0,7.2,7.2A7.2,7.2,0,0,0,1170.49,313Zm-75.71-90.75a7.2,7.2,0,1,0,7.2,7.2A7.2,7.2,0,0,0,1094.78,222.24Zm153.9,15.29a7.2,7.2,0,1,0,7.2,7.2A7.2,7.2,0,0,0,1248.68,237.53ZM922.08,105.91a7.2,7.2,0,1,0,7.2,7.2A7.21,7.21,0,0,0,922.08,105.91Zm129.63,205.51a7.2,7.2,0,1,0,7.2,7.2A7.2,7.2,0,0,0,1051.71,311.42ZM936,187.65a7.2,7.2,0,1,0,7.2,7.2A7.21,7.21,0,0,0,936,187.65Zm225.31-51.28a7.2,7.2,0,1,0,7.2,7.2A7.2,7.2,0,0,0,1161.35,136.37ZM762.35,85a7.2,7.2,0,1,0,7.2,7.2A7.2,7.2,0,0,0,762.35,85Zm62.1,5.06a7.2,7.2,0,1,0,7.2,7.2A7.21,7.21,0,0,0,824.45,90.06Zm411.71,26.19a7.2,7.2,0,1,0,7.2,7.2A7.2,7.2,0,0,0,1236.16,116.25Zm-57.82,122.81a7.2,7.2,0,1,0,7.2,7.2A7.2,7.2,0,0,0,1178.34,239.06ZM891.56,86.15a7.2,7.2,0,1,0,7.2,7.2A7.2,7.2,0,0,0,891.56,86.15ZM1035.2,120.9a7.2,7.2,0,1,0,7.2,7.2A7.2,7.2,0,0,0,1035.2,120.9Zm173.73,195.31a7.2,7.2,0,1,0,7.2,7.2A7.2,7.2,0,0,0,1208.93,316.21Zm-12.67,42.64a7.2,7.2,0,1,0,7.2,7.2A7.2,7.2,0,0,0,1196.26,358.85Zm-96.2-262.69a7.2,7.2,0,1,0,7.2,7.2A7.2,7.2,0,0,0,1100.06,96.16ZM939.66,152.3a7.2,7.2,0,1,0,7.2,7.2A7.2,7.2,0,0,0,939.66,152.3Zm45.57-9.76a7.2,7.2,0,1,0,7.2,7.2A7.2,7.2,0,0,0,985.23,142.54Zm147.93-80.66a7.2,7.2,0,1,0,7.2,7.2A7.2,7.2,0,0,0,1133.16,61.88Zm43.53-11.42a7.2,7.2,0,1,0,7.2,7.2A7.2,7.2,0,0,0,1176.69,50.46ZM879.71,204a7.2,7.2,0,1,0,7.2,7.2A7.2,7.2,0,0,0,879.71,204Zm244.14-35.14a7.2,7.2,0,1,0,7.2,7.2A7.2,7.2,0,0,0,1123.85,168.86ZM1337.65,86a7.2,7.2,0,1,0,7.2,7.2A7.2,7.2,0,0,0,1337.65,86Zm-179.3,67.65a7.2,7.2,0,1,0,7.2,7.2A7.2,7.2,0,0,0,1158.35,153.66ZM895,120.66a7.2,7.2,0,1,0,7.2,7.2A7.2,7.2,0,0,0,895,120.66Zm-68,130.87a7.2,7.2,0,1,0,7.2,7.2A7.2,7.2,0,0,0,827.08,251.53Zm376,13.43a7.2,7.2,0,1,0,7.2,7.2A7.2,7.2,0,0,0,1203.12,265Zm-164.47-11.65a7.2,7.2,0,1,0,7.2,7.2A7.2,7.2,0,0,0,1038.65,253.31Zm-121.79-21.4a7.2,7.2,0,1,0,7.2,7.2A7.21,7.21,0,0,0,916.86,231.91Zm89.08,98.35a7.2,7.2,0,1,0,7.2,7.2A7.2,7.2,0,0,0,1005.94,330.26ZM930.76,89.68a7.2,7.2,0,1,0,7.2,7.2A7.2,7.2,0,0,0,930.76,89.68ZM1188.3,315.92a7.2,7.2,0,1,0,7.2,7.2A7.2,7.2,0,0,0,1188.3,315.92Zm-264.5-176a7.2,7.2,0,1,0,7.2,7.2A7.2,7.2,0,0,0,923.8,139.91ZM1062.13,33.58a7.2,7.2,0,1,0,7.2,7.2A7.2,7.2,0,0,0,1062.13,33.58Zm-265.37,145a7.2,7.2,0,1,0,7.2,7.2A7.2,7.2,0,0,0,796.76,178.55Zm476.55-27.19a7.2,7.2,0,1,0,7.2,7.2A7.2,7.2,0,0,0,1273.31,151.36Zm-254.37-21.07a7.2,7.2,0,1,0,7.2,7.2A7.2,7.2,0,0,0,1018.94,130.29ZM651,252.18a7.2,7.2,0,1,0,7.2,7.2A7.21,7.21,0,0,0,651,252.18ZM976.41,80.93a7.2,7.2,0,1,0,7.2,7.2A7.2,7.2,0,0,0,976.41,80.93Zm296.38,32.54a7.2,7.2,0,1,0,7.2,7.2A7.2,7.2,0,0,0,1272.79,113.47Zm-268.48,3.46a7.2,7.2,0,1,0,7.2,7.2A7.2,7.2,0,0,0,1004.31,116.93ZM1178,187.63a7.2,7.2,0,1,0,7.2,7.2A7.2,7.2,0,0,0,1178,187.63ZM1122.2,304a7.2,7.2,0,1,0,7.2,7.2A7.2,7.2,0,0,0,1122.2,304Zm-57.79,20.06a7.2,7.2,0,1,0,7.2,7.2A7.2,7.2,0,0,0,1064.41,324.07Zm-58-67.71a7.2,7.2,0,1,0,7.2,7.2A7.21,7.21,0,0,0,1006.41,256.36Zm51.33-173.88a7.2,7.2,0,1,0,7.2,7.2A7.2,7.2,0,0,0,1057.74,82.48Zm49.55,94.7a7.2,7.2,0,1,0,7.2,7.2A7.2,7.2,0,0,0,1107.29,177.18Zm-4.45-103a7.2,7.2,0,1,0,7.2,7.2A7.2,7.2,0,0,0,1102.84,74.16Zm112.42,130.43a7.2,7.2,0,1,0,7.2,7.2A7.2,7.2,0,0,0,1215.26,204.59ZM1025,263.45a7.2,7.2,0,1,0,7.2,7.2A7.2,7.2,0,0,0,1025,263.45Zm36.9-120.91a7.2,7.2,0,1,0,7.2,7.2A7.2,7.2,0,0,0,1061.87,142.54Zm79.92,164.53a7.2,7.2,0,1,0,7.2,7.2A7.2,7.2,0,0,0,1141.79,307.07ZM1226.09,70a7.2,7.2,0,1,0,7.2,7.2A7.21,7.21,0,0,0,1226.09,70ZM1048,170.25a7.2,7.2,0,1,0,7.2,7.2A7.2,7.2,0,0,0,1048,170.25ZM958,276.84a7.2,7.2,0,1,0,7.2,7.2A7.2,7.2,0,0,0,958,276.84ZM1345.18,70.23a7.2,7.2,0,1,0,7.2,7.2A7.2,7.2,0,0,0,1345.18,70.23Zm-255,115a7.2,7.2,0,1,0,7.2,7.2A7.2,7.2,0,0,0,1090.21,185.21Zm-289-56.3a7.2,7.2,0,1,0,7.2,7.2A7.2,7.2,0,0,0,801.17,128.91Zm57.91-33a7.2,7.2,0,1,0,7.2,7.2A7.2,7.2,0,0,0,859.08,95.92Zm171,67.66a7.2,7.2,0,1,0,7.2,7.2A7.21,7.21,0,0,0,1030.1,163.58ZM848.82,257a7.2,7.2,0,1,0,7.2,7.2A7.2,7.2,0,0,0,848.82,257Zm379.74,62.25a7.2,7.2,0,1,0,7.2,7.2A7.2,7.2,0,0,0,1228.56,319.23Zm-58.73-218.48a7.2,7.2,0,1,0,7.2,7.2A7.2,7.2,0,0,0,1169.83,100.75Zm-10-50.47a7.2,7.2,0,1,0,7.2,7.2A7.2,7.2,0,0,0,1159.87,50.28ZM1090.7,319.22a7.2,7.2,0,1,0,7.2,7.2A7.21,7.21,0,0,0,1090.7,319.22Zm134.23-168.06a7.2,7.2,0,1,0,7.2,7.2A7.2,7.2,0,0,0,1224.93,151.16Zm-222.46-15.62a7.2,7.2,0,1,0,7.2,7.2A7.2,7.2,0,0,0,1002.47,135.54Zm128-19.73a7.2,7.2,0,1,0,7.2,7.2A7.2,7.2,0,0,0,1130.48,115.81ZM902.8,183.75A7.2,7.2,0,1,0,910,191,7.2,7.2,0,0,0,902.8,183.75Zm297.11,116.19a7.2,7.2,0,1,0,7.2,7.2A7.2,7.2,0,0,0,1199.91,299.94Zm59-206.19a7.2,7.2,0,1,0,7.2,7.2A7.2,7.2,0,0,0,1259,93.75ZM848.47,193.56a7.2,7.2,0,1,0,7.2,7.2A7.21,7.21,0,0,0,848.47,193.56ZM908.87,216a7.2,7.2,0,1,0,7.2,7.2A7.2,7.2,0,0,0,908.87,216Zm-47.66-88.64a7.2,7.2,0,1,0,7.2,7.2A7.2,7.2,0,0,0,861.21,127.37Zm172.73,106.82a7.2,7.2,0,1,0,7.2,7.2A7.2,7.2,0,0,0,1033.94,234.19ZM1108.18,195a7.2,7.2,0,1,0,7.2,7.2A7.21,7.21,0,0,0,1108.18,195ZM1073.7,82.51a7.2,7.2,0,1,0,7.2,7.2A7.21,7.21,0,0,0,1073.7,82.51Zm-160,38.61a7.2,7.2,0,1,0,7.2,7.2A7.2,7.2,0,0,0,913.7,121.12ZM809.83,211.84A7.2,7.2,0,1,0,817,219,7.2,7.2,0,0,0,809.83,211.84Zm297.74-52.92a7.2,7.2,0,1,0,7.2,7.2A7.2,7.2,0,0,0,1107.57,158.92Zm118.52,191.63a7.2,7.2,0,1,0,7.2,7.2A7.21,7.21,0,0,0,1226.09,350.55ZM927.86,282.91a7.2,7.2,0,1,0,7.2,7.2A7.2,7.2,0,0,0,927.86,282.91Zm165.65,112a7.2,7.2,0,1,0,7.2,7.2A7.2,7.2,0,0,0,1093.51,394.88ZM1065.88,65.65a7.2,7.2,0,1,0,7.2,7.2A7.21,7.21,0,0,0,1065.88,65.65ZM912.49,289.59a7.2,7.2,0,1,0,7.2,7.2A7.2,7.2,0,0,0,912.49,289.59Zm71.89-74.91a7.2,7.2,0,1,0,7.2,7.2A7.2,7.2,0,0,0,984.38,214.68Zm20-160.62a7.2,7.2,0,1,0,7.2,7.2A7.2,7.2,0,0,0,1004.33,54.06ZM921.61,178.68a7.2,7.2,0,1,0,7.2,7.2A7.2,7.2,0,0,0,921.61,178.68Zm249.69,77.66a7.2,7.2,0,1,0,7.2,7.2A7.2,7.2,0,0,0,1171.3,256.34ZM774.86,69.9a7.2,7.2,0,1,0,7.2,7.2A7.2,7.2,0,0,0,774.86,69.9Zm391.4,277.56a7.2,7.2,0,1,0,7.2,7.2A7.21,7.21,0,0,0,1166.26,347.46Zm-99.84-101a7.2,7.2,0,1,0,7.2,7.2A7.2,7.2,0,0,0,1066.42,246.47ZM1413.09,77.7a7.2,7.2,0,1,0,7.2,7.2A7.2,7.2,0,0,0,1413.09,77.7ZM784.64,230.45a7.2,7.2,0,1,0,7.2,7.2A7.2,7.2,0,0,0,784.64,230.45Zm375.18-44.77a7.2,7.2,0,1,0,7.2,7.2A7.2,7.2,0,0,0,1159.82,185.68Zm97.23,119.37a7.2,7.2,0,1,0,7.2,7.2A7.21,7.21,0,0,0,1257.05,305.05Zm46.77,182.64a7.2,7.2,0,1,0,7.2,7.2A7.2,7.2,0,0,0,1303.82,487.69Zm-62-307.4a7.2,7.2,0,1,0,7.2,7.2A7.2,7.2,0,0,0,1241.85,180.29Zm-494-81.55a7.2,7.2,0,1,0,7.2,7.2A7.2,7.2,0,0,0,747.81,98.74Zm494.72-15.9a7.2,7.2,0,1,0,7.2,7.2A7.2,7.2,0,0,0,1242.53,82.84Zm34.27-5.93a7.2,7.2,0,1,0,7.2,7.2A7.2,7.2,0,0,0,1276.8,76.91Zm-146,244.71a7.2,7.2,0,1,0,7.2,7.2A7.2,7.2,0,0,0,1130.76,321.62ZM906.55,136.36a7.2,7.2,0,1,0,7.2,7.2A7.21,7.21,0,0,0,906.55,136.36Zm157.87-35.54a7.2,7.2,0,1,0,7.2,7.2A7.2,7.2,0,0,0,1064.42,100.82Zm233.23,118a7.2,7.2,0,1,0,7.2,7.2A7.2,7.2,0,0,0,1297.65,218.84Zm-193.22,88.24a7.2,7.2,0,1,0,7.2,7.2A7.2,7.2,0,0,0,1104.43,307.08ZM851.24,174.36a7.2,7.2,0,1,0,7.2,7.2A7.2,7.2,0,0,0,851.24,174.36Zm21.22-1.87a7.2,7.2,0,1,0,7.2,7.2A7.2,7.2,0,0,0,872.46,172.49Zm215.18,180.75a7.2,7.2,0,1,0,7.2,7.2A7.2,7.2,0,0,0,1087.64,353.24ZM1025,330.15a7.2,7.2,0,1,0,7.2,7.2A7.2,7.2,0,0,0,1025,330.15Zm383.68,198.24a7.2,7.2,0,1,0,7.2,7.2A7.2,7.2,0,0,0,1408.71,528.39ZM1253.42,54.83a7.2,7.2,0,1,0,7.2,7.2A7.2,7.2,0,0,0,1253.42,54.83ZM1279.31,188a7.2,7.2,0,1,0,7.2,7.2A7.21,7.21,0,0,0,1279.31,188ZM1074,267.75a7.2,7.2,0,1,0,7.2,7.2A7.2,7.2,0,0,0,1074,267.75ZM1261.57,222a7.2,7.2,0,1,0,7.2,7.2A7.2,7.2,0,0,0,1261.57,222ZM1382,87.61a7.2,7.2,0,1,0,7.2,7.2A7.2,7.2,0,0,0,1382,87.61ZM1057.4,186.4a7.2,7.2,0,1,0,7.2,7.2A7.2,7.2,0,0,0,1057.4,186.4ZM902.25,104.13a7.2,7.2,0,1,0,7.2,7.2A7.2,7.2,0,0,0,902.25,104.13Zm334,94.53a7.2,7.2,0,1,0,7.2,7.2A7.2,7.2,0,0,0,1236.29,198.66Zm-1.48,191.78a7.2,7.2,0,1,0,7.2,7.2A7.2,7.2,0,0,0,1234.81,390.44ZM881.52,246.63a7.2,7.2,0,1,0,7.2,7.2A7.2,7.2,0,0,0,881.52,246.63Zm87.17-39.54a7.2,7.2,0,1,0,7.2,7.2A7.2,7.2,0,0,0,968.69,207.09ZM1062.1,121a7.2,7.2,0,1,0,7.2,7.2A7.21,7.21,0,0,0,1062.1,121Zm-63.45,82.4a7.2,7.2,0,1,0,7.2,7.2A7.2,7.2,0,0,0,998.65,203.43ZM1306.46,63.84a7.2,7.2,0,1,0,7.2,7.2A7.2,7.2,0,0,0,1306.46,63.84Zm-84.33,124a7.2,7.2,0,1,0,7.2,7.2A7.2,7.2,0,0,0,1222.13,187.88ZM881.54,156.23a7.2,7.2,0,1,0,7.2,7.2A7.2,7.2,0,0,0,881.54,156.23Zm106-31.46a7.2,7.2,0,1,0,7.2,7.2A7.2,7.2,0,0,0,987.57,124.77Zm-17.48,119a7.2,7.2,0,1,0,7.2,7.2A7.2,7.2,0,0,0,970.09,243.72Zm184.06-176a7.2,7.2,0,1,0,7.2,7.2A7.2,7.2,0,0,0,1154.15,67.68Zm69.42,19a7.2,7.2,0,1,0,7.2,7.2A7.2,7.2,0,0,0,1223.57,86.7ZM1075.06,287.36a7.2,7.2,0,1,0,7.2,7.2A7.2,7.2,0,0,0,1075.06,287.36Zm202.21,46.85a7.2,7.2,0,1,0,7.2,7.2A7.2,7.2,0,0,0,1277.27,334.21Zm-490-231.79a7.2,7.2,0,1,0,7.2,7.2A7.2,7.2,0,0,0,787.31,102.42Zm97,84a7.2,7.2,0,1,0,7.2,7.2A7.2,7.2,0,0,0,884.26,186.44ZM1077,135a7.2,7.2,0,1,0,7.2,7.2A7.21,7.21,0,0,0,1077,135Zm98.88,84a7.2,7.2,0,1,0,7.2,7.2A7.2,7.2,0,0,0,1175.92,219.06Zm-71.29,159.17a7.2,7.2,0,1,0,7.2,7.2A7.2,7.2,0,0,0,1104.63,378.23Zm-360-146.55a7.2,7.2,0,1,0,7.2,7.2A7.2,7.2,0,0,0,744.68,231.68Zm414.81,69.21a7.2,7.2,0,1,0,7.2,7.2A7.2,7.2,0,0,0,1159.49,300.89Zm130.78-144.17a7.2,7.2,0,1,0,7.2,7.2A7.2,7.2,0,0,0,1290.27,156.72ZM898.81,351.07a7.2,7.2,0,1,0,7.2,7.2A7.21,7.21,0,0,0,898.81,351.07ZM730.94,195.5a7.2,7.2,0,1,0,7.2,7.2A7.2,7.2,0,0,0,730.94,195.5Zm394.46,67.86a7.2,7.2,0,1,0,7.2,7.2A7.2,7.2,0,0,0,1125.4,263.36Zm64.44-102.49a7.2,7.2,0,1,0,7.2,7.2A7.2,7.2,0,0,0,1189.84,160.87Zm125,18.61a7.2,7.2,0,1,0,7.2,7.2A7.2,7.2,0,0,0,1314.83,179.48Zm-269.35,21.91a7.2,7.2,0,1,0,7.2,7.2A7.2,7.2,0,0,0,1045.48,201.39Zm244.18-62.15a7.2,7.2,0,1,0,7.2,7.2A7.2,7.2,0,0,0,1289.66,139.24ZM1039.27,54.59a7.2,7.2,0,1,0,7.2,7.2A7.2,7.2,0,0,0,1039.27,54.59ZM992.57,270a7.2,7.2,0,1,0,7.2,7.2A7.2,7.2,0,0,0,992.57,270Zm222,93.72a7.2,7.2,0,1,0,7.2,7.2A7.21,7.21,0,0,0,1214.53,363.75Zm84.65,150.64a7.2,7.2,0,1,0,7.2,7.2A7.2,7.2,0,0,0,1299.18,514.39Zm-188.33-281a7.2,7.2,0,1,0,7.2,7.2A7.2,7.2,0,0,0,1110.85,233.41ZM1212.48,57.75a7.2,7.2,0,1,0,7.2,7.2A7.2,7.2,0,0,0,1212.48,57.75ZM1079.06,334.66a7.2,7.2,0,1,0,7.2,7.2A7.2,7.2,0,0,0,1079.06,334.66Zm60.08-119.53a7.2,7.2,0,1,0,7.2,7.2A7.2,7.2,0,0,0,1139.14,215.13ZM763.56,160a7.2,7.2,0,1,0,7.2,7.2A7.2,7.2,0,0,0,763.56,160ZM1412.14,100a7.2,7.2,0,1,0,7.2,7.2A7.2,7.2,0,0,0,1412.14,100Zm-122.46,3.84a7.2,7.2,0,1,0,7.2,7.2A7.21,7.21,0,0,0,1289.68,103.88ZM909.09,168.06a7.2,7.2,0,1,0,7.2,7.2A7.2,7.2,0,0,0,909.09,168.06ZM727.05,212a7.2,7.2,0,1,0,7.2,7.2A7.2,7.2,0,0,0,727.05,212Zm389.66-106.79a7.2,7.2,0,1,0,7.2,7.2A7.2,7.2,0,0,0,1116.71,105.19Zm-55,57.11a7.2,7.2,0,1,0,7.2,7.2A7.2,7.2,0,0,0,1061.73,162.3Zm-58.28,76.39a7.2,7.2,0,1,0,7.2,7.2A7.2,7.2,0,0,0,1003.45,238.69Zm55.68,101.79a7.2,7.2,0,1,0,7.2,7.2A7.2,7.2,0,0,0,1059.13,340.48ZM999.8,302.91a7.2,7.2,0,1,0,7.2,7.2A7.2,7.2,0,0,0,999.8,302.91ZM1113.86,87.73a7.2,7.2,0,1,0,7.2,7.2A7.2,7.2,0,0,0,1113.86,87.73Zm72,254.64a7.2,7.2,0,1,0,7.2,7.2A7.2,7.2,0,0,0,1185.85,342.37ZM795.2,80.47a7.2,7.2,0,1,0,7.2,7.2A7.21,7.21,0,0,0,795.2,80.47Zm282.35,133.38a7.2,7.2,0,1,0,7.2,7.2A7.2,7.2,0,0,0,1077.55,213.85ZM1033.13,312a7.2,7.2,0,1,0,7.2,7.2A7.2,7.2,0,0,0,1033.13,312ZM810.87,82a7.2,7.2,0,1,0,7.2,7.2A7.2,7.2,0,0,0,810.87,82Zm-60.63,82.4a7.2,7.2,0,1,0,7.2,7.2A7.2,7.2,0,0,0,750.24,164.39Zm83.7,5.41a7.2,7.2,0,1,0,7.2,7.2A7.2,7.2,0,0,0,833.94,169.8Zm-13.42,27.72a7.2,7.2,0,1,0,7.2,7.2A7.2,7.2,0,0,0,820.52,197.52Zm58.24-73.32a7.2,7.2,0,1,0,7.2,7.2A7.2,7.2,0,0,0,878.76,124.2Zm256.08,243.59a7.2,7.2,0,1,0,7.2,7.2A7.2,7.2,0,0,0,1134.84,367.79Zm-17.7-29a7.2,7.2,0,1,0,7.2,7.2A7.2,7.2,0,0,0,1117.14,338.77ZM1073.27,175.4a7.2,7.2,0,1,0,7.2,7.2A7.2,7.2,0,0,0,1073.27,175.4ZM1041.57,273a7.2,7.2,0,1,0,7.2,7.2A7.2,7.2,0,0,0,1041.57,273Zm110.8,47.25a7.2,7.2,0,1,0,7.2,7.2A7.21,7.21,0,0,0,1152.37,320.21Zm-15.55-28.37a7.2,7.2,0,1,0,7.2,7.2A7.2,7.2,0,0,0,1136.82,291.84Zm-44.23-144.16a7.2,7.2,0,1,0,7.2,7.2A7.2,7.2,0,0,0,1092.59,147.68ZM972.77,51.41a7.2,7.2,0,1,0,7.2,7.2A7.2,7.2,0,0,0,972.77,51.41Zm235.79,345a7.2,7.2,0,1,0,7.2,7.2A7.2,7.2,0,0,0,1208.56,396.42Zm63.36-264.86a7.2,7.2,0,1,0,7.2,7.2A7.2,7.2,0,0,0,1271.92,131.56ZM901.54,301.84a7.2,7.2,0,1,0,7.2,7.2A7.2,7.2,0,0,0,901.54,301.84Zm363.86,19.64a7.2,7.2,0,1,0,7.2,7.2A7.21,7.21,0,0,0,1265.4,321.48ZM720,157.22a7.2,7.2,0,1,0,7.2,7.2A7.2,7.2,0,0,0,720,157.22Zm514.53,95.16a7.2,7.2,0,1,0,7.2,7.2A7.2,7.2,0,0,0,1234.48,252.38Zm62.14,50a7.2,7.2,0,1,0,7.2,7.2A7.2,7.2,0,0,0,1296.62,302.38Zm-154-47.9a7.2,7.2,0,1,0,7.2,7.2A7.2,7.2,0,0,0,1142.64,254.48ZM805.35,228a7.2,7.2,0,1,0,7.2,7.2A7.2,7.2,0,0,0,805.35,228ZM1200,193.32a7.2,7.2,0,1,0,7.2,7.2A7.2,7.2,0,0,0,1200,193.32ZM820.39,67.81a7.2,7.2,0,1,0,7.2,7.2A7.2,7.2,0,0,0,820.39,67.81Zm-61.08,1.9a7.2,7.2,0,1,0,7.2,7.2A7.2,7.2,0,0,0,759.31,69.71Zm27.68-8a7.2,7.2,0,1,0,7.2,7.2A7.2,7.2,0,0,0,787,61.68Zm154.75,212.6a7.2,7.2,0,1,0,7.2,7.2A7.21,7.21,0,0,0,941.74,274.28Zm72.76-69.89a7.2,7.2,0,1,0,7.2,7.2A7.2,7.2,0,0,0,1014.5,204.39Zm299.19,35.71a7.2,7.2,0,1,0,7.2,7.2A7.21,7.21,0,0,0,1313.69,240.1ZM1169.57,82.21a7.2,7.2,0,1,0,7.2,7.2A7.2,7.2,0,0,0,1169.57,82.21Zm-106,144.69a7.2,7.2,0,1,0,7.2,7.2A7.2,7.2,0,0,0,1063.55,226.9ZM1180.84,133a7.2,7.2,0,1,0,7.2,7.2A7.2,7.2,0,0,0,1180.84,133ZM1363,72.59a7.2,7.2,0,1,0,7.2,7.2A7.2,7.2,0,0,0,1363,72.59Zm-30,136.87a7.2,7.2,0,1,0,7.2,7.2A7.2,7.2,0,0,0,1333,209.46ZM970.24,133.83a7.2,7.2,0,1,0,7.2,7.2A7.2,7.2,0,0,0,970.24,133.83ZM998.81,153a7.2,7.2,0,1,0,7.2,7.2A7.2,7.2,0,0,0,998.81,153ZM884.52,301.81a7.2,7.2,0,1,0,7.2,7.2A7.2,7.2,0,0,0,884.52,301.81Zm126.24-29.27a7.2,7.2,0,1,0,7.2,7.2A7.2,7.2,0,0,0,1010.76,272.54ZM893.09,216a7.2,7.2,0,1,0,7.2,7.2A7.2,7.2,0,0,0,893.09,216Zm265.17,51.72a7.2,7.2,0,1,0,7.2,7.2A7.2,7.2,0,0,0,1158.26,267.7ZM976.58,99a7.2,7.2,0,1,0,7.2,7.2A7.2,7.2,0,0,0,976.58,99Zm177.21-9.09a7.2,7.2,0,1,0,7.2,7.2A7.21,7.21,0,0,0,1153.79,89.92Zm-270,13.54a7.2,7.2,0,1,0,7.2,7.2A7.2,7.2,0,0,0,883.82,103.46Zm242,100.2a7.2,7.2,0,1,0,7.2,7.2A7.2,7.2,0,0,0,1125.82,203.66Zm-64.93,93.9a7.2,7.2,0,1,0,7.2,7.2A7.2,7.2,0,0,0,1060.89,297.56Zm191.62-169.78a7.2,7.2,0,1,0,7.2,7.2A7.2,7.2,0,0,0,1252.51,127.78Z"/></g></g></svg>